<svg width="1440" height="875" viewBox="0 0 1440 875" fill="none" xmlns="http://www.w3.org/2000/svg">
<path d="M1212.35 152.914C1292.94 36.1796 1397.78 2.33202 1440.12 0V548C1415.3 559.494 1372.95 581.272 1328.18 593.665C1272.21 609.156 1183.51 717.994 1001 706.5C854.993 697.305 732.332 814.643 615.664 842.524C372.827 900.558 0 863 0 863L1.14441e-05 252.857C4.86692 261.686 32.511 279.342 104.152 279.342C193.703 279.342 257.459 290.836 387.893 325.316C518.326 359.797 686.721 569.95 906.705 481.5C1126.69 393.05 1111.6 298.831 1212.35 152.914Z" fill="url(#paint0_linear_4_17)"/>
<defs>
<linearGradient id="paint0_linear_4_17" x1="458.112" y1="605" x2="1529.61" y2="186" gradientUnits="userSpaceOnUse">
<stop stop-color="#F77B61"/>
<stop offset="0.982936" stop-color="#E65F5B"/>
</linearGradient>
</defs>
</svg>
