<svg width="221" height="21" viewBox="0 0 221 21" fill="none" xmlns="http://www.w3.org/2000/svg">
<path d="M14.95 2.9C16.545 2.9 17.85 4.205 17.85 5.8V11.6H3.34995V5.8C3.34995 4.205 4.65495 2.9 6.24995 2.9H14.95ZM20.75 5.8C20.663 2.581 18.053 0 14.95 0H6.24995C3.00195 0 0.449951 2.726 0.449951 5.8V20.3H3.34995V14.5H17.85V20.3H20.75V5.8Z" fill="black"/>
<path d="M26.5443 2.9H43.9443V0H23.6443V20.3H43.9443V17.4H26.5443V11.6H41.0443V8.7H26.5443V2.9Z" fill="black"/>
<path d="M63.6722 8.7C63.6722 10.295 62.3672 11.6 60.7722 11.6H49.1722V2.9H60.7722C62.3672 2.9 63.6722 4.205 63.6722 5.8V8.7ZM66.5722 5.8C66.4852 2.581 63.8752 0 60.7722 0H46.2722V20.3H49.1722V14.5H60.7722C64.0202 14.5 66.5722 11.774 66.5722 8.7V5.8Z" fill="#77D3D9"/>
<path d="M86.3001 8.7C86.3001 10.295 84.9951 11.6 83.4001 11.6H71.8001V2.9H83.4001C84.9951 2.9 86.3001 4.205 86.3001 5.8V8.7ZM89.2001 20.3V18.241L85.1692 14.21C87.5762 13.398 89.2001 11.165 89.2001 8.7V5.8C89.2001 2.581 86.4451 0 83.4001 0H68.9001V20.3H71.8001V14.5H81.3411L87.1412 20.3H89.2001Z" fill="#77D3D9"/>
<path d="M108.921 14.5C108.921 16.095 107.616 17.4 106.021 17.4H97.3213C95.7263 17.4 94.4213 16.095 94.4213 14.5V5.8C94.4213 4.205 95.7263 2.9 97.3213 2.9H106.021C107.616 2.9 108.921 4.205 108.921 5.8V14.5ZM111.821 5.8C111.821 2.639 109.095 0 106.021 0H97.3213C94.1313 0 91.5213 2.61 91.5213 5.8V14.5C91.5213 17.719 94.1023 20.3 97.3213 20.3H106.021C109.211 20.3 111.821 17.69 111.821 14.5V5.8Z" fill="#77D3D9"/>
<path d="M119.369 17.4C117.774 17.4 116.469 16.095 116.469 14.5H113.569C113.656 17.777 116.208 20.3 119.369 20.3H128.069C131.317 20.3 133.869 17.574 133.869 14.5V0H130.969V14.5C130.969 16.095 129.664 17.4 128.069 17.4H119.369Z" fill="black"/>
<path d="M139.656 2.9H157.056V0H136.756V20.3H157.056V17.4H139.656V11.6H154.156V8.7H139.656V2.9Z" fill="black"/>
<path d="M164.894 0C161.646 0.0870006 159.094 2.668 159.094 5.8V14.5C159.094 17.777 161.791 20.3 164.894 20.3H173.594C176.842 20.3 179.394 17.574 179.394 14.5H176.494C176.494 16.095 175.189 17.4 173.594 17.4H164.894C163.299 17.4 161.994 16.095 161.994 14.5V5.8C161.994 4.205 163.299 2.9 164.894 2.9H173.594C175.189 2.9 176.494 4.205 176.494 5.8H179.394C179.307 2.581 176.697 0 173.594 0H164.894Z" fill="black"/>
<path d="M199.984 2.9V0H179.684V2.9H188.384V20.3H191.284V2.9H199.984Z" fill="black"/>
<path d="M220.883 14.5C220.883 11.281 218.128 8.7 215.083 8.7H206.383C204.788 8.7 203.483 7.395 203.483 5.8C203.483 4.205 204.788 2.9 206.383 2.9H215.083C216.678 2.9 217.983 4.205 217.983 5.8H220.883C220.796 2.581 218.186 0 215.083 0H206.383C203.135 0 200.583 2.726 200.583 5.8C200.583 9.077 203.28 11.6 206.383 11.6H215.083C216.678 11.6 217.983 12.905 217.983 14.5C217.983 16.095 216.678 17.4 215.083 17.4H206.383C204.788 17.4 203.483 16.095 203.483 14.5H200.583C200.67 17.777 203.222 20.3 206.383 20.3H215.083C218.331 20.3 220.883 17.574 220.883 14.5Z" fill="black"/>
</svg>
