<svg width="20" height="21" viewBox="0 0 20 21" fill="none" xmlns="http://www.w3.org/2000/svg">
<path fill-rule="evenodd" clip-rule="evenodd" d="M3.65625 16C3.25898 16 2.84934 16.1772 2.5267 16.5416C2.20056 16.9099 2 17.4329 2 18C2 18.5523 1.55228 19 1 19C0.447715 19 0 18.5523 0 18C0 16.9758 0.359152 15.9726 1.0293 15.2158C1.70294 14.455 2.64456 14 3.65625 14H18C18.5523 14 19 14.4477 19 15C19 15.5523 18.5523 16 18 16H3.65625Z" fill="white"/>
<path fill-rule="evenodd" clip-rule="evenodd" d="M3.5 2C3.10218 2 2.72064 2.15804 2.43934 2.43934C2.15804 2.72064 2 3.10218 2 3.5V17.5C2 17.8978 2.15804 18.2794 2.43934 18.5607C2.72064 18.842 3.10218 19 3.5 19H18V2H3.5ZM1.02513 1.02513C1.6815 0.368749 2.57174 0 3.5 0H19C19.5523 0 20 0.447715 20 1V20C20 20.5523 19.5523 21 19 21H3.5C2.57174 21 1.6815 20.6313 1.02513 19.9749C0.368749 19.3185 0 18.4283 0 17.5V3.5C0 2.57174 0.368749 1.6815 1.02513 1.02513Z" fill="white"/>
</svg>
