<svg width="17" height="14" viewBox="0 0 17 14" fill="none" xmlns="http://www.w3.org/2000/svg">
<path fill-rule="evenodd" clip-rule="evenodd" d="M2.50413 1.5C1.953 1.5 1.5 1.953 1.5 2.50413V11.5289C1.5 12.0801 1.953 12.5331 2.50413 12.5331H14.5372C15.0883 12.5331 15.5413 12.0801 15.5413 11.5289V2.50413C15.5413 1.953 15.0883 1.5 14.5372 1.5H2.50413ZM0.5 2.50413C0.5 1.40072 1.40072 0.5 2.50413 0.5H14.5372C15.6406 0.5 16.5413 1.40072 16.5413 2.50413V11.5289C16.5413 12.6323 15.6406 13.5331 14.5372 13.5331H2.50413C1.40072 13.5331 0.5 12.6323 0.5 11.5289V2.50413Z" fill="white"/>
<path fill-rule="evenodd" clip-rule="evenodd" d="M0.590427 2.2174C0.748784 1.99118 1.06055 1.93616 1.28677 2.09452L8.52071 7.15827L15.7546 2.09452C15.9809 1.93616 16.2926 1.99118 16.451 2.2174C16.6093 2.44363 16.5543 2.75539 16.3281 2.91375L8.80744 8.17821C8.63528 8.29872 8.40614 8.29872 8.23398 8.17821L0.713312 2.91375C0.487087 2.75539 0.43207 2.44363 0.590427 2.2174Z" fill="white"/>
</svg>
