<svg width="20" height="18" viewBox="0 0 20 18" fill="none" xmlns="http://www.w3.org/2000/svg">
<path d="M0.353259 8.643L4.96166 10.363L6.74539 16.0995C6.85953 16.4669 7.30879 16.6027 7.60699 16.3589L10.1758 14.2647C10.4451 14.0453 10.8286 14.0344 11.11 14.2387L15.7432 17.6025C16.0622 17.8343 16.5141 17.6595 16.5941 17.2741L19.9882 0.947996C20.0755 0.52693 19.6618 0.175663 19.2609 0.33073L0.347859 7.6268C-0.118874 7.8068 -0.114808 8.4676 0.353259 8.643ZM6.45793 9.4474L15.4645 3.90026C15.6263 3.80086 15.7929 4.01973 15.6539 4.14866L8.22086 11.058C7.95959 11.3012 7.79106 11.6267 7.74333 11.9799L7.49013 13.8563C7.45659 14.1069 7.10466 14.1317 7.03553 13.8893L6.06173 10.4676C5.95019 10.0773 6.11273 9.66046 6.45793 9.4474Z" fill="#0088CC"/>
</svg>
