<svg width="18" height="22" viewBox="0 0 18 22" fill="none" xmlns="http://www.w3.org/2000/svg">
<path fill-rule="evenodd" clip-rule="evenodd" d="M17.4 1.1C17 0.9 16.6 1 16.3 1.3C16.3 1.3 15.4 2 13 2C11.7 2 10.6 1.5 9.4 1.1C8 0.5 6.7 0 5 0C1.8 0 0.5 1.1 0.3 1.3C0.1 1.5 0 1.7 0 2V21C0 21.5 0.5 22 1 22C1.5 22 2 21.5 2 21V14.5C2.4 14.3 3.4 14 5 14C6.3 14 7.4 14.5 8.6 14.9C10 15.5 11.3 16 13 16C16.2 16 17.5 14.9 17.7 14.7C17.9 14.5 18 14.3 18 14V2C18 1.6 17.8 1.3 17.4 1.1ZM16 13.5C15.6 13.7 14.6 14 13 14C11.7 14 10.6 13.5 9.4 13.1C8 12.5 6.7 12 5 12C3.7 12 2.7 12.2 2 12.4V2.5C2.4 2.3 3.4 2 5 2C6.3 2 7.4 2.5 8.6 2.9C10 3.5 11.3 4 13 4C14.3 4 15.3 3.8 16 3.6V13.5Z" fill="white"/>
</svg>
