<svg width="18" height="22" viewBox="0 0 18 22" fill="none" xmlns="http://www.w3.org/2000/svg">
<path fill-rule="evenodd" clip-rule="evenodd" d="M3 2C2.73478 2 2.48043 2.10536 2.29289 2.29289C2.10536 2.48043 2 2.73478 2 3V21C2 21.5523 1.55228 22 1 22C0.447715 22 0 21.5523 0 21V3C0 2.20435 0.31607 1.44129 0.87868 0.87868C1.44129 0.31607 2.20435 0 3 0H15C15.7956 0 16.5587 0.31607 17.1213 0.87868C17.6839 1.44129 18 2.20435 18 3V21C18 21.5523 17.5523 22 17 22C16.4477 22 16 21.5523 16 21V3C16 2.73478 15.8946 2.48043 15.7071 2.29289C15.5196 2.10536 15.2652 2 15 2H3Z" fill="white"/>
<path fill-rule="evenodd" clip-rule="evenodd" d="M4 6C4 5.44772 4.44772 5 5 5H7C7.55228 5 8 5.44772 8 6C8 6.55228 7.55228 7 7 7H5C4.44772 7 4 6.55228 4 6Z" fill="white"/>
<path fill-rule="evenodd" clip-rule="evenodd" d="M4 11C4 10.4477 4.44772 10 5 10H7C7.55228 10 8 10.4477 8 11C8 11.5523 7.55228 12 7 12H5C4.44772 12 4 11.5523 4 11Z" fill="white"/>
<path fill-rule="evenodd" clip-rule="evenodd" d="M4 16C4 15.4477 4.44772 15 5 15H7C7.55228 15 8 15.4477 8 16C8 16.5523 7.55228 17 7 17H5C4.44772 17 4 16.5523 4 16Z" fill="white"/>
<path fill-rule="evenodd" clip-rule="evenodd" d="M10 6C10 5.44772 10.4477 5 11 5H13C13.5523 5 14 5.44772 14 6C14 6.55228 13.5523 7 13 7H11C10.4477 7 10 6.55228 10 6Z" fill="white"/>
<path fill-rule="evenodd" clip-rule="evenodd" d="M10 11C10 10.4477 10.4477 10 11 10H13C13.5523 10 14 10.4477 14 11C14 11.5523 13.5523 12 13 12H11C10.4477 12 10 11.5523 10 11Z" fill="white"/>
<path fill-rule="evenodd" clip-rule="evenodd" d="M10 16C10 15.4477 10.4477 15 11 15H13C13.5523 15 14 15.4477 14 16C14 16.5523 13.5523 17 13 17H11C10.4477 17 10 16.5523 10 16Z" fill="white"/>
</svg>
