<svg width="16" height="16" viewBox="0 0 16 16" fill="none" xmlns="http://www.w3.org/2000/svg">
<path d="M14 16C13.9 16 13.9 16 13.8 16C11.4 15.7 9.1 14.9 7.1 13.6C5.2 12.4 3.6 10.8 2.4 8.9C1.1 6.9 0.3 4.6 0 2.2C0 1.9 0 1.6 0.1 1.4C0.2 1.1 0.3 0.9 0.5 0.7C0.7 0.5 0.9 0.3 1.2 0.2C1.5 0.1 1.7 0 2 0H4.3C4.8 0 5.3 0.2 5.6 0.5C6 0.8 6.2 1.2 6.3 1.7C6.4 2.4 6.6 3.1 6.8 3.7C6.9 4.1 7 4.4 6.9 4.8C6.8 5.2 6.6 5.5 6.4 5.8L5.6 6.5C6.6 8.1 7.9 9.4 9.4 10.3L10.1 9.6C10.4 9.3 10.7 9.1 11.1 9.1C11.5 9 11.9 9 12.2 9.2C12.8 9.4 13.5 9.6 14.2 9.7C14.7 9.8 15.1 10 15.5 10.4C15.8 10.8 16 11.3 16 11.7V14C16 14.3 15.9 14.6 15.8 14.8C15.7 15.1 15.5 15.3 15.3 15.5C15.1 15.7 14.9 15.8 14.6 15.9C14.4 16 14.2 16 14 16ZM4.3 1H2C1.9 1 1.7 1 1.6 1.1C1.5 1.1 1.4 1.2 1.3 1.3C1.2 1.4 1.1 1.6 1.1 1.7C1 1.8 1 2 1 2.1C1.2 4.3 2 6.5 3.2 8.4C4.3 10.1 5.8 11.7 7.6 12.8C9.5 14 11.7 14.8 13.9 15C14 15 14.2 15 14.3 14.9C14.4 14.9 14.6 14.8 14.7 14.7C14.8 14.6 14.9 14.5 14.9 14.4C15 14.3 15 14.1 15 14V11.7C15 11.5 14.9 11.2 14.8 11C14.6 10.8 14.4 10.7 14.2 10.7C13.4 10.6 12.7 10.4 12 10.1C11.8 10 11.6 10 11.4 10.1C11.2 10.1 11 10.2 10.9 10.4L9.9 11.4C9.7 11.6 9.5 11.6 9.3 11.5C7.3 10.4 5.7 8.8 4.6 6.8C4.5 6.5 4.5 6.3 4.7 6.1L5.7 5.1C5.7 5 5.8 4.8 5.9 4.6C5.9 4.4 5.9 4.2 5.9 4C5.6 3.4 5.4 2.6 5.3 1.9C5.3 1.7 5.1 1.4 5 1.3C4.8 1.1 4.5 1 4.3 1Z" fill="white"/>
</svg>
