<svg width="22" height="14" viewBox="0 0 22 14" fill="none" xmlns="http://www.w3.org/2000/svg">
<path d="M21.8039 11.9199C21.7448 11.8209 21.379 11.026 19.6189 9.39242C17.7762 7.6818 18.0238 7.95957 20.2432 5.00172C21.5949 3.20034 22.1353 2.10026 21.9662 1.62997C21.8053 1.18169 20.8111 1.29995 20.8111 1.29995L17.5053 1.3192C17.5053 1.3192 17.2606 1.2862 17.0777 1.39483C16.9003 1.50209 16.7862 1.74961 16.7862 1.74961C16.7862 1.74961 16.2623 3.14396 15.5637 4.3293C14.091 6.83061 13.501 6.96262 13.2604 6.80723C12.7007 6.44558 12.841 5.35237 12.841 4.57682C12.841 2.15251 13.2082 1.14181 12.1246 0.880541C11.7643 0.79391 11.5003 0.736156 10.5803 0.72653C9.4005 0.714154 8.4008 0.730655 7.83563 1.00705C7.45885 1.19131 7.16871 1.60247 7.3461 1.62585C7.56474 1.65472 8.05977 1.75923 8.32242 2.11676C8.66207 2.57742 8.64969 3.61424 8.64969 3.61424C8.64969 3.61424 8.84496 6.46758 8.19453 6.82236C7.74763 7.06575 7.1357 6.56934 5.82248 4.29905C5.15006 3.13708 4.64127 1.85136 4.64127 1.85136C4.64127 1.85136 4.54364 1.6121 4.369 1.48421C4.15724 1.32882 3.86022 1.27932 3.86022 1.27932L0.716735 1.29857C0.716735 1.29857 0.245075 1.31232 0.0718122 1.51721C-0.0821991 1.7001 0.0594363 2.07688 0.0594363 2.07688C0.0594363 2.07688 2.52087 7.83443 5.30682 10.7373C7.86313 13.3981 10.7646 13.2235 10.7646 13.2235H12.0792C12.0792 13.2235 12.4766 13.1795 12.6787 12.9608C12.8658 12.76 12.8589 12.3833 12.8589 12.3833C12.8589 12.3833 12.8327 10.619 13.6523 10.3591C14.4595 10.1034 15.4963 12.0642 16.595 12.8192C17.4256 13.3898 18.0568 13.2647 18.0568 13.2647L20.9953 13.2235C20.9953 13.2235 22.5327 13.1286 21.8039 11.9199Z" fill="#2787F5"/>
</svg>
