<svg width="22" height="16" viewBox="0 0 22 16" fill="none" xmlns="http://www.w3.org/2000/svg">
<path d="M20.8768 2.84487C20.6391 1.96128 19.9424 1.26476 19.059 1.02684C17.445 0.585236 10.989 0.585236 10.989 0.585236C10.989 0.585236 4.53324 0.585236 2.91927 1.0101C2.05281 1.24777 1.33916 1.96141 1.10149 2.84487C0.676758 4.45871 0.676758 7.80561 0.676758 7.80561C0.676758 7.80561 0.676758 11.1694 1.10149 12.7664C1.33942 13.6498 2.03581 14.3463 2.9194 14.5843C4.55024 15.026 10.9893 15.026 10.9893 15.026C10.9893 15.026 17.445 15.026 19.059 14.6011C19.9426 14.3633 20.6391 13.6668 20.877 12.7833C21.3016 11.1694 21.3016 7.8226 21.3016 7.8226C21.3016 7.8226 21.3186 4.45871 20.8768 2.84487ZM8.93355 10.8976V4.71363L14.302 7.80561L8.93355 10.8976Z" fill="#E14040"/>
</svg>
