<svg width="15" height="19" viewBox="0 0 15 19" fill="none" xmlns="http://www.w3.org/2000/svg">
<path fill-rule="evenodd" clip-rule="evenodd" d="M7.52055 1.5C5.85802 1.5 4.26357 2.16044 3.08798 3.33603C1.91239 4.51162 1.25195 6.10606 1.25195 7.7686C1.25195 10.1999 2.82697 12.5222 4.49923 14.2873C5.32513 15.1591 6.15273 15.872 6.77442 16.367C7.08377 16.6133 7.34113 16.8049 7.52055 16.9346C7.69997 16.8049 7.95733 16.6133 8.26668 16.367C8.88836 15.872 9.71597 15.1591 10.5419 14.2873C12.2141 12.5222 13.7891 10.1999 13.7891 7.7686C13.7891 6.10606 13.1287 4.51162 11.9531 3.33603C10.7775 2.16044 9.18309 1.5 7.52055 1.5ZM7.52055 17.5455L7.7979 17.9615C7.62995 18.0735 7.41115 18.0735 7.2432 17.9615L7.52055 17.5455ZM2.38088 2.62892C3.744 1.2658 5.5928 0.5 7.52055 0.5C9.4483 0.5 11.2971 1.2658 12.6602 2.62892C14.0234 3.99205 14.7891 5.84085 14.7891 7.7686C14.7891 10.6018 12.9799 13.1679 11.2678 14.9751C10.4016 15.8894 9.53703 16.6337 8.88961 17.1493C8.5655 17.4074 8.29479 17.6089 8.10413 17.7466C8.00878 17.8155 7.93338 17.8684 7.88125 17.9045C7.85518 17.9226 7.83493 17.9364 7.8209 17.946L7.80458 17.957L7.80001 17.9601L7.79865 17.961L7.7982 17.9613C7.79804 17.9614 7.7979 17.9615 7.52055 17.5455C7.2432 17.9615 7.24306 17.9614 7.2429 17.9613L7.24245 17.961L7.24109 17.9601L7.23652 17.957L7.2202 17.946C7.20617 17.9364 7.18592 17.9226 7.15985 17.9045C7.10772 17.8684 7.03232 17.8155 6.93697 17.7466C6.74631 17.6089 6.4756 17.4074 6.15149 17.1493C5.50407 16.6337 4.63952 15.8894 3.77328 14.9751C2.06123 13.1679 0.251953 10.6018 0.251953 7.7686C0.251953 5.84085 1.01775 3.99205 2.38088 2.62892Z" fill="white"/>
<path fill-rule="evenodd" clip-rule="evenodd" d="M7.5206 6.01239C6.55068 6.01239 5.7644 6.79867 5.7644 7.76859C5.7644 8.73851 6.55068 9.52479 7.5206 9.52479C8.49053 9.52479 9.2768 8.73851 9.2768 7.76859C9.2768 6.79867 8.49053 6.01239 7.5206 6.01239ZM4.7644 7.76859C4.7644 6.24638 5.9984 5.01239 7.5206 5.01239C9.04281 5.01239 10.2768 6.24638 10.2768 7.76859C10.2768 9.2908 9.04281 10.5248 7.5206 10.5248C5.9984 10.5248 4.7644 9.2908 4.7644 7.76859Z" fill="white"/>
</svg>
