<svg width="421" height="23" viewBox="0 0 421 23" fill="none" xmlns="http://www.w3.org/2000/svg">
<path fill-rule="evenodd" clip-rule="evenodd" d="M10.3485 14.862H13.3561C13.717 14.862 13.9576 14.4743 13.9576 14.0866V3.87703C13.9576 0 18.6493 -1.80928 21.1756 2.58469C23.8222 7.23713 25.2658 10.0803 25.2658 10.0803V3.87703C25.2658 0 29.9576 -1.80928 32.4839 2.58469C35.0102 7.23713 36.5741 10.0803 36.5741 10.0803V0H38.8598V16.8005C38.8598 17.059 38.8598 17.059 38.7395 17.1882L38.6192 17.3174C38.4989 17.3174 38.4989 17.3174 38.3786 17.3174C38.2583 17.3174 38.0177 17.059 37.8974 16.8005L30.4388 3.3601C30.1982 2.97239 29.8373 2.58469 29.4763 2.58469C29.2357 2.45546 28.8748 2.45546 28.6342 2.58469C28.3936 2.71392 28.0327 2.84316 27.9124 3.10163C27.6718 3.3601 27.5515 3.87703 27.5515 4.39397V17.1882C27.5515 17.3174 27.5515 17.4467 27.4312 17.4467H27.3109C27.3109 17.4467 27.1906 17.4467 27.0703 17.4467C26.95 17.4467 26.8297 17.3174 26.7094 17.059L19.1305 3.23086C18.8899 2.84316 18.529 2.58469 18.1681 2.45546C18.0478 2.45546 17.8072 2.32622 17.6869 2.32622C17.5666 2.32622 17.4463 2.32622 17.326 2.32622C17.0854 2.32622 16.8448 2.58469 16.6042 2.84316C16.3636 3.10163 16.123 3.61857 16.123 4.26474V16.542C16.123 16.9297 16.123 17.1882 16.0027 17.1882C15.8824 17.3174 15.7621 17.3174 15.4012 17.3174H9.98763C8.18312 17.3174 6.49891 16.542 5.1756 15.2497C3.9726 14.0866 3.37109 12.2773 3.37109 10.2095C3.37109 8.40024 4.0929 6.72019 5.1756 5.55708C6.37861 4.26474 7.94252 3.48933 9.50643 3.48933H12.8748V5.94479C12.8748 5.94479 12.5139 5.94479 9.86733 5.94479C4.3335 6.20326 3.732 14.862 10.3485 14.862Z" fill="#575859"/>
<path fill-rule="evenodd" clip-rule="evenodd" d="M42.1082 0V17.0588C42.2285 21.582 37.1758 22.3574 35.1307 18.7388C33.9277 16.6711 30.9202 11.1141 30.9202 11.1141V17.0588C30.9202 21.582 25.8676 22.3574 23.9428 18.7388C22.7398 16.6711 19.7322 11.1141 19.7322 11.1141V16.6711C19.7322 19.385 18.2886 20.9358 15.8826 20.9358H10.2285C3.61194 20.9358 0.123214 15.7665 0.00291303 10.8556C-0.117388 5.4278 3.49164 0 10.2285 0H12.8751V2.45544H9.50667C7.58186 2.45544 5.77735 3.36007 4.33374 4.78164C3.13073 6.2032 2.28863 8.14171 2.28863 10.3387C2.28863 12.7941 3.13073 14.7326 4.45404 16.1542C5.89765 17.705 7.82246 18.4804 9.98788 18.4804H15.5217C16.2435 18.4804 16.7247 18.2219 16.9653 17.8342C17.2059 17.4465 17.3262 16.9296 17.3262 16.4126V4.13547C17.3262 3.877 17.3262 3.61854 17.4465 3.4893L17.5668 3.36007C17.6871 3.36007 17.6871 3.36007 17.8074 3.36007C17.9277 3.36007 18.048 3.4893 18.1683 3.61854L25.627 17.4465C25.8676 17.9634 26.2285 18.2219 26.5894 18.3511C26.83 18.4804 27.0706 18.4804 27.4315 18.3511C27.6721 18.3511 27.9127 18.0927 28.1533 17.9634C28.3939 17.705 28.5142 17.3173 28.5142 16.9296V4.13547C28.5142 3.877 28.5142 3.74777 28.6345 3.61854C28.6345 3.61854 28.7548 3.4893 28.8751 3.4893C28.9954 3.4893 29.1157 3.4893 29.1157 3.4893C29.236 3.4893 29.3563 3.61854 29.4766 3.74777L36.8149 17.3173C37.0555 17.8342 37.4165 18.0927 37.8977 18.3511C38.018 18.3511 38.2586 18.4804 38.3789 18.4804C38.4992 18.4804 38.6195 18.4804 38.7398 18.4804C38.9804 18.3511 39.221 18.2219 39.4616 17.9634C39.7022 17.705 39.8225 17.3173 39.8225 16.8003V0H42.1082Z" fill="#575859"/>
<path fill-rule="evenodd" clip-rule="evenodd" d="M68.0029 1.05347H72.3261C75.0419 1.05347 75.8178 1.05347 76.9263 2.43478C77.4806 3.01032 77.7577 4.10386 77.7577 4.96718C77.7577 6.06071 77.2035 6.92403 76.1504 7.78735C78.5891 8.65066 78.312 10.8953 78.312 11.7011C78.312 12.8521 78.0348 13.9457 76.9818 14.809C75.6516 15.9025 75.0973 16.1903 72.6586 16.1903H68.0029V1.05347ZM71.7718 6.69381H72.8249C73.3791 6.69381 74.1551 6.69381 74.1551 5.54272C74.1551 4.44918 73.3237 4.44918 72.8249 4.44918H71.7718V6.69381ZM71.7718 12.8521H73.102C73.6563 12.8521 74.9865 12.8521 74.7093 11.4708C74.9865 10.0895 73.878 10.0895 73.102 10.0895H71.7718V12.8521Z" fill="#575859"/>
<path fill-rule="evenodd" clip-rule="evenodd" d="M79.3652 1.05347H82.5799V16.1903H79.3652V1.05347Z" fill="#575859"/>
<path fill-rule="evenodd" clip-rule="evenodd" d="M89.3416 4.39185C93.3876 4.39185 95.2721 7.49974 95.2721 10.5501C95.2721 13.0824 93.3876 16.4205 89.3416 16.4205C85.5727 16.4205 83.6883 13.0824 83.4111 10.5501C83.6883 7.49974 85.5727 4.39185 89.3416 4.39185ZM89.3416 13.4277C90.9489 13.4277 92.0574 12.0465 92.0574 10.6076C92.0574 8.65081 90.9489 7.49974 89.3416 7.49974C88.0114 7.49974 86.9029 8.59325 86.9029 10.6076C86.9029 11.9889 88.0114 13.4277 89.3416 13.4277Z" fill="#575859"/>
<path fill-rule="evenodd" clip-rule="evenodd" d="M102.034 4.39185C106.08 4.39185 107.964 7.49974 107.964 10.5501C107.964 13.0824 106.08 16.4205 102.034 16.4205C97.988 16.4205 96.1035 13.0824 96.1035 10.5501C96.1035 7.49974 97.988 4.39185 102.034 4.39185ZM102.034 13.4277C103.364 13.4277 104.75 12.0465 104.75 10.6076C104.75 8.65081 103.42 7.49974 102.034 7.49974C100.704 7.49974 99.3182 8.59325 99.3182 10.6076C99.3736 11.9889 100.704 13.4277 102.034 13.4277Z" fill="#575859"/>
<path fill-rule="evenodd" clip-rule="evenodd" d="M108.795 4.67961H111.788V6.0609C112.065 5.48536 112.841 4.39185 114.781 4.39185C115.89 4.39185 117.22 4.67961 118.051 6.34866C118.883 5.25515 119.936 4.39185 121.543 4.39185C122.374 4.39185 123.705 4.39185 124.536 5.48536C125.589 6.63643 125.589 7.44218 125.589 9.97453V16.1328H122.319V10.0321C122.319 9.16878 122.319 7.49973 120.712 7.49973C118.827 7.49973 118.827 9.16878 118.827 10.0321V16.1903H115.613V10.0321C115.613 9.16878 115.613 7.49973 114.005 7.49973C112.121 7.49973 112.121 9.45655 112.121 10.0321V16.1903H108.851V4.67961H108.795Z" fill="#575859"/>
<path fill-rule="evenodd" clip-rule="evenodd" d="M126.92 1.05347H130.411V5.83044C131.465 4.44915 133.127 4.44915 133.404 4.44915C135.843 4.44915 139.058 6.11821 138.781 10.3196C139.058 14.5211 136.065 16.4779 133.404 16.4779C131.797 16.4779 130.689 15.6146 130.134 15.0966V16.1901H126.864V1.05347H126.92ZM132.85 13.4276C134.457 13.4276 135.566 12.0463 135.566 10.6074C135.566 8.93835 134.513 7.4995 132.85 7.4995C131.243 7.4995 130.134 8.88079 130.134 10.6074C130.134 11.9887 131.243 13.4276 132.85 13.4276Z" fill="#575859"/>
<path fill-rule="evenodd" clip-rule="evenodd" d="M151.251 12.5645C150.697 13.9458 149.921 14.8092 148.813 15.6725C147.981 16.2481 146.928 16.5359 145.82 16.5359C142.55 16.5359 139.889 14.0034 139.889 10.6651C139.889 7.32686 142.328 4.50659 145.542 4.50659C149.034 4.50659 151.473 7.32686 151.473 10.6651C151.473 11.2407 151.473 11.2407 151.473 11.5285H143.104C143.381 12.9098 144.434 13.7732 145.82 13.7732C146.873 13.7732 147.427 13.1976 147.704 12.6221H151.251V12.5645ZM148.258 9.16866C148.258 8.5931 147.427 7.21174 145.82 7.21174C144.212 7.21174 143.381 8.5931 143.104 9.16866H148.258Z" fill="#575859"/>
<path fill-rule="evenodd" clip-rule="evenodd" d="M152.859 4.67969H155.852V6.06101C156.406 5.48546 157.736 4.67969 159.066 4.96746V8.07543C157.736 8.07543 156.073 8.07543 156.073 10.0323V16.1907H152.803V4.67969H152.859Z" fill="#575859"/>
<path fill-rule="evenodd" clip-rule="evenodd" d="M171.481 14.8091C171.481 16.4782 171.204 18.7229 170.65 19.5862C169.819 20.9676 167.934 22.4065 165.218 22.1187C161.449 21.5431 160.341 19.874 160.064 18.2049H163.556C164.11 19.0682 165.163 19.0682 165.44 19.356C167.047 19.0682 168.156 19.0682 167.879 15.4422V15.1544C167.602 15.73 166.77 16.5358 164.886 16.5358C161.893 16.5358 159.454 14.2911 159.454 10.6651C159.454 6.75127 162.17 4.50659 164.886 4.50659C166.216 4.50659 167.324 4.79437 167.879 5.88793V4.73682H171.37V14.8091H171.481ZM165.551 13.4278C167.158 13.4278 168.267 12.2766 167.99 10.6075C168.267 8.65061 166.881 7.4995 165.551 7.4995C164.221 7.4995 162.835 8.59306 162.835 10.6075C162.835 12.2766 164.221 13.4278 165.551 13.4278Z" fill="#575859"/>
<path fill-rule="evenodd" clip-rule="evenodd" d="M389.182 5.96293C387.922 5.96293 386.925 6.24157 385.928 6.85458C385.928 3.78953 385.928 0.947382 386.033 0L379.892 1.17029V1.72758L380.522 1.83903C381.362 2.00622 381.624 2.50777 381.782 3.67807C381.939 6.01866 381.887 18.3346 381.782 20.3966C383.409 20.7867 385.141 21.0653 386.872 21.0653C391.701 21.0653 394.587 17.8888 394.587 12.8732C394.64 8.8608 392.278 5.96293 389.182 5.96293ZM387.082 19.9507C386.715 19.9507 386.243 19.9507 385.98 19.8393C385.875 18.5018 385.823 12.8175 385.875 7.80197C386.4 7.63478 386.768 7.52332 387.24 7.52332C389.234 7.52332 390.336 10.0311 390.336 13.0962C390.336 16.9971 388.972 19.9507 387.082 19.9507Z" fill="#575859"/>
<path fill-rule="evenodd" clip-rule="evenodd" d="M357.01 0.389893H341.003V1.28154L341.895 1.393C343.102 1.56018 343.522 2.34038 343.732 4.1794C343.994 7.63455 343.889 13.9318 343.732 16.9411C343.575 18.7802 343.102 19.6161 341.895 19.7276L341.003 19.8947V20.6749H351.289V19.8947L350.187 19.7276C348.98 19.6161 348.56 18.7802 348.35 16.9411C348.246 15.6594 348.193 13.6532 348.193 11.1454L350.397 11.2569C351.762 11.2569 352.392 12.4272 352.654 14.0433H353.494V7.133H352.654C352.392 8.74911 351.762 9.9194 350.397 9.9194L348.193 10.0309C348.193 6.7429 348.298 3.67785 348.35 1.83882H351.552C354.019 1.83882 355.278 3.45494 356.17 6.3528L357.063 6.07416L357.01 0.389893Z" fill="#575859"/>
<path fill-rule="evenodd" clip-rule="evenodd" d="M362.153 5.7959C366.719 5.7959 368.976 9.08384 368.976 13.4306C368.976 17.5545 366.457 21.0653 361.891 21.0653C357.325 21.0653 355.068 17.7774 355.068 13.4306C355.068 9.25102 357.64 5.7959 362.153 5.7959ZM361.891 6.74327C359.896 6.74327 359.372 9.64112 359.372 13.3749C359.372 17.0529 360.264 20.0065 362.101 20.0065C364.2 20.0065 364.725 17.1086 364.725 13.3749C364.725 9.75257 363.833 6.74327 361.891 6.74327Z" fill="#575859"/>
<path fill-rule="evenodd" clip-rule="evenodd" d="M395.794 13.4864C395.794 9.52972 398.156 5.74023 402.775 5.74023C406.606 5.74023 408.39 8.74953 408.39 12.7062H399.941C399.836 16.2728 401.463 18.892 404.769 18.892C406.238 18.892 406.973 18.5019 407.865 17.8332L408.233 18.3347C407.341 19.6722 405.346 21.0096 402.775 21.0096C398.733 21.0654 395.794 17.9446 395.794 13.4864ZM399.993 11.7031L404.244 11.5916C404.244 9.64118 403.982 6.74333 402.407 6.74333C400.885 6.74333 400.098 9.47399 399.993 11.7031Z" fill="#575859"/>
<path fill-rule="evenodd" clip-rule="evenodd" d="M419.254 6.5761C418.152 6.07454 416.735 5.7959 415.056 5.7959C411.697 5.7959 409.597 7.9136 409.597 10.4214C409.597 12.9292 411.119 13.988 413.324 14.7683C415.58 15.6599 416.21 16.3287 416.21 17.4432C416.21 18.6135 415.37 19.6724 413.953 19.6724C412.221 19.6724 410.962 18.6135 409.965 15.7156L409.335 15.8828L409.44 20.1182C410.542 20.6198 412.536 21.0099 414.268 21.0099C417.837 21.0099 420.094 19.0594 420.094 16.1057C420.094 14.0995 419.097 12.9292 416.735 11.9818C414.216 10.923 413.271 10.2542 413.271 8.97245C413.271 7.69068 414.111 6.85475 415.161 6.85475C416.787 6.85475 417.89 7.9136 418.729 10.5329L419.359 10.3657L419.254 6.5761Z" fill="#575859"/>
<path fill-rule="evenodd" clip-rule="evenodd" d="M380.785 6.18584C379.263 5.23847 376.534 5.68429 375.064 9.19515L375.169 5.79575L369.081 7.07749V7.63477L369.711 7.74623C370.551 7.85768 370.918 8.30351 370.97 9.58525C371.128 11.9258 371.075 15.9382 370.97 18.0002C370.865 19.1705 370.498 19.7277 369.711 19.8392L369.081 19.9506V20.7308H377.531V19.9506L376.429 19.8392C375.536 19.7277 375.221 19.1705 375.169 18.0002C375.012 16.1611 375.012 12.4831 375.064 10.1983C375.536 9.52952 377.531 8.91651 379.315 10.1983L380.785 6.18584Z" fill="#575859"/>
<path fill-rule="evenodd" clip-rule="evenodd" d="M243.045 8.7084C242.793 7.21844 241.585 6.8588 240.276 6.70466C236.046 6.29364 235.291 9.53044 235.291 10.9176C235.291 13.281 235.946 15.182 240.125 15.182C240.88 15.182 242.995 14.36 242.995 13.0755H248.986C248.734 16.9802 242.34 17.905 239.571 17.905C233.781 17.905 228.846 16.8261 229.098 10.969C229.249 6.80742 233.126 3.87888 240.729 4.08439C245.009 4.18715 249.087 5.52297 249.087 8.7084H243.045Z" fill="#575859"/>
<path fill-rule="evenodd" clip-rule="evenodd" d="M302.961 8.70841C302.659 7.26979 301.501 6.85876 300.192 6.756C295.962 6.34497 295.207 9.58186 295.207 10.9691C295.207 13.3325 295.862 15.2336 300.041 15.2336C300.796 15.2336 302.911 14.4115 302.911 13.127H308.902C308.65 17.0318 302.256 17.9567 299.487 17.9567C293.697 17.9567 288.762 16.8777 289.014 11.0205C289.165 6.85876 293.042 3.93015 300.645 4.13566C304.925 4.23842 309.003 5.57428 309.003 8.75979H302.961V8.70841Z" fill="#575859"/>
<path fill-rule="evenodd" clip-rule="evenodd" d="M250.144 4.34155H257.948L264.544 13.8466H264.594V4.34155H269.579V17.5459H262.127L255.179 8.04082H255.129V17.5459H250.144V4.34155Z" fill="#575859"/>
<path fill-rule="evenodd" clip-rule="evenodd" d="M283.99 10.4815C286.457 10.0191 287.615 8.58049 287.615 7.45018C287.615 5.49782 284.947 4.21338 280.415 4.21338H271V17.3661H280.466C285.551 17.3661 288.119 16.0816 288.119 13.7696C288.119 12.588 287.011 10.6356 283.99 10.4815ZM276.438 6.62813H278.452C280.617 6.62813 281.674 6.98778 281.674 8.06671C281.674 9.09427 280.415 9.29978 277.999 9.29978H276.438V6.62813ZM277.999 14.5917H276.438V11.8173H278.452C280.617 11.8173 281.976 12.1769 281.976 13.2559C281.976 14.2834 280.919 14.5917 277.999 14.5917Z" fill="#575859"/>
<path fill-rule="evenodd" clip-rule="evenodd" d="M203.218 8.86281C203.319 7.88662 204.074 6.91043 205.031 6.60215C205.988 6.29388 206.995 6.55078 207.699 7.27008C208.002 7.52697 208.153 7.88662 208.304 8.24627L211.677 16.621L204.125 11.329C203.42 10.6611 203.118 9.839 203.218 8.86281Z" fill="#575859"/>
<path fill-rule="evenodd" clip-rule="evenodd" d="M205.132 12.4074L212.432 17.3911H203.369C202.413 17.2884 201.708 16.7746 201.255 15.9011C200.802 15.0277 200.902 13.7433 201.507 12.9726C202.161 12.1505 203.118 11.7909 204.074 11.945C204.477 12.0478 204.83 12.2533 205.132 12.4074Z" fill="#575859"/>
<path fill-rule="evenodd" clip-rule="evenodd" d="M213.087 5.16351C213.187 5.47178 213.187 5.88281 213.137 6.24245L211.626 15.5933L208.102 6.96175C207.75 6.03694 207.901 4.80387 208.505 4.08457C209.21 3.3139 210.166 2.95426 211.173 3.21115C212.08 3.46804 212.885 4.29009 213.087 5.16351Z" fill="#575859"/>
<path fill-rule="evenodd" clip-rule="evenodd" d="M214.748 14.6681L213.691 7.57814C213.641 7.16713 213.842 6.80749 214.144 6.55061L214.648 6.24235C214.698 6.1396 214.547 6.08822 214.446 6.03684H213.439C213.389 5.00932 213.792 4.08454 214.648 3.5194C215.302 3.10839 216.309 2.95426 217.014 3.31389C217.971 3.7249 218.625 4.75243 218.625 5.77996C218.625 6.19097 218.575 6.55061 218.424 6.91024L214.849 15.4901L214.748 14.6681Z" fill="#575859"/>
<path fill-rule="evenodd" clip-rule="evenodd" d="M218.474 7.93803C218.928 7.06456 219.834 6.49938 220.791 6.448C221.697 6.448 222.502 6.91042 223.056 7.73251C223.61 8.5546 223.61 9.83911 223.107 10.6612C222.855 11.0209 222.502 11.3805 222.15 11.6374L214.95 16.5699L217.367 10.6612L218.474 7.93803Z" fill="#575859"/>
<path fill-rule="evenodd" clip-rule="evenodd" d="M225.272 15.953C224.818 16.8264 224.114 17.3402 223.157 17.443H214.094L221.445 12.4077C221.747 12.2022 222.1 12.0481 222.452 11.9967C223.409 11.7912 224.365 12.2022 225.02 13.0243C225.624 13.795 225.725 15.0281 225.272 15.953Z" fill="#575859"/>
<path fill-rule="evenodd" clip-rule="evenodd" d="M223.056 10.6612C222.804 11.0209 222.452 11.3805 222.099 11.6374L214.899 16.5699L217.316 10.6612L218.474 7.93803C218.927 7.06456 219.833 6.49938 220.79 6.448C221.696 6.448 222.502 6.91042 223.056 7.73251C223.559 8.50322 223.559 9.83911 223.056 10.6612Z" fill="#575859"/>
<path fill-rule="evenodd" clip-rule="evenodd" d="M218.726 5.8314C218.726 6.24242 218.676 6.60206 218.525 6.9617L214.95 15.5417L214.799 14.617L213.691 7.57823C213.641 7.16721 213.842 6.80757 214.144 6.55068L214.648 6.24242C214.698 6.13966 214.547 6.08828 214.446 6.03691H213.439C213.389 5.00935 213.792 4.08456 214.648 3.51941C215.302 3.10839 216.309 2.95425 217.014 3.3139C218.021 3.77629 218.676 4.80384 218.726 5.8314Z" fill="#575859"/>
<path fill-rule="evenodd" clip-rule="evenodd" d="M213.137 6.29406L211.627 15.6451L208.102 7.01337C207.75 6.08854 207.901 4.85543 208.505 4.13612C209.21 3.36542 210.166 3.00577 211.173 3.26266C212.029 3.46818 212.835 4.29025 213.036 5.21509C213.187 5.52336 213.187 5.9344 213.137 6.29406Z" fill="#575859"/>
<path fill-rule="evenodd" clip-rule="evenodd" d="M211.677 16.5695L204.125 11.3289C203.42 10.7124 203.067 9.83896 203.168 8.86278C203.269 7.8866 204.024 6.91042 204.981 6.60215C205.937 6.29389 206.944 6.55077 207.649 7.27006C207.951 7.52695 208.102 7.8866 208.253 8.24624L211.677 16.5695Z" fill="#575859"/>
<path fill-rule="evenodd" clip-rule="evenodd" d="M212.432 17.4429H203.369C202.413 17.3401 201.708 16.8263 201.255 15.9529C200.802 15.0795 200.902 13.795 201.507 13.0243C202.161 12.2023 203.118 11.8426 204.074 11.9968C204.477 12.0481 204.779 12.2537 205.081 12.4078L212.432 17.4429Z" fill="#575859"/>
<path fill-rule="evenodd" clip-rule="evenodd" d="M225.272 15.953C224.818 16.8264 224.114 17.3402 223.157 17.443H214.094L221.445 12.4077C221.747 12.2022 222.1 12.0481 222.452 11.9967C223.409 11.7912 224.365 12.2022 225.02 13.0243C225.624 13.795 225.725 15.0281 225.272 15.953Z" fill="#575859"/>
</svg>
