<svg width="62" height="45" viewBox="0 0 62 45" fill="none" xmlns="http://www.w3.org/2000/svg">
<path d="M43.8978 7.86946V22.6108H58.9453V7.86946H43.8978ZM52.1298 15.7389H52.2135V18.399H50.7427V15.7389H50.8264C50.0854 15.4773 49.5547 14.7824 49.5547 13.9655C49.5547 12.9248 50.4157 12.0813 51.4781 12.0813C52.5405 12.0813 53.4015 12.9248 53.4015 13.9655C53.4015 14.7824 52.8708 15.4773 52.1298 15.7389ZM51.365 0C47.6212 0 44.5766 2.98374 44.5766 6.65025H45.708C45.708 3.59446 48.2457 1.10837 51.365 1.10837C54.4842 1.10837 57.0219 3.59446 57.0219 6.65025H58.1533C58.1533 2.98374 55.1076 0 51.365 0ZM0 42.5062C0 43.8839 1.13931 45 2.54562 45H59.4544C60.1581 45 60.7939 44.7207 61.2544 44.2696C61.7149 43.8185 62 43.1956 62 42.5062H0ZM54.4197 23.6084V37.6249C54.4197 38.4539 53.7341 39.1256 52.8878 39.1256H9.11219C8.26591 39.1256 7.58029 38.4539 7.58029 37.6249V13.2495C7.58029 12.4204 8.26591 11.7488 9.11219 11.7488H42.8796V9.53202H8.56007C6.76909 9.53202 5.31752 10.9541 5.31752 12.7086V38.1658C5.31752 39.9203 6.76909 41.3424 8.56007 41.3424H53.4399C55.2309 41.3424 56.6825 39.9203 56.6825 38.1658V23.6084H54.4197ZM30.208 28.0419V33.0296H49.1022V28.0419H30.208ZM34.2245 31.2007C33.3499 31.2007 33.351 29.8707 34.2245 29.8707C35.099 29.8707 35.0979 31.2007 34.2245 31.2007ZM37.8449 31.2007C36.9703 31.2007 36.9715 29.8707 37.8449 29.8707C38.7195 29.8707 38.7183 31.2007 37.8449 31.2007ZM41.4653 31.2007C40.5908 31.2007 40.5919 29.8707 41.4653 29.8707C42.3399 29.8707 42.3388 31.2007 41.4653 31.2007ZM45.0858 31.2007C44.2112 31.2007 44.2123 29.8707 45.0858 29.8707C45.9603 29.8707 45.9592 31.2007 45.0858 31.2007ZM30.208 28.0419V33.0296H49.1022V28.0419H30.208ZM34.2245 31.2007C33.3499 31.2007 33.351 29.8707 34.2245 29.8707C35.099 29.8707 35.0979 31.2007 34.2245 31.2007ZM37.8449 31.2007C36.9703 31.2007 36.9715 29.8707 37.8449 29.8707C38.7195 29.8707 38.7183 31.2007 37.8449 31.2007ZM41.4653 31.2007C40.5908 31.2007 40.5919 29.8707 41.4653 29.8707C42.3399 29.8707 42.3388 31.2007 41.4653 31.2007ZM45.0858 31.2007C44.2112 31.2007 44.2123 29.8707 45.0858 29.8707C45.9603 29.8707 45.9592 31.2007 45.0858 31.2007ZM30.208 28.0419V33.0296H49.1022V28.0419H30.208ZM34.2245 31.2007C33.3499 31.2007 33.351 29.8707 34.2245 29.8707C35.099 29.8707 35.0979 31.2007 34.2245 31.2007ZM37.8449 31.2007C36.9703 31.2007 36.9715 29.8707 37.8449 29.8707C38.7195 29.8707 38.7183 31.2007 37.8449 31.2007ZM41.4653 31.2007C40.5908 31.2007 40.5919 29.8707 41.4653 29.8707C42.3399 29.8707 42.3388 31.2007 41.4653 31.2007ZM45.0858 31.2007C44.2112 31.2007 44.2123 29.8707 45.0858 29.8707C45.9603 29.8707 45.9592 31.2007 45.0858 31.2007ZM30.208 28.0419V33.0296H49.1022V28.0419H30.208ZM34.2245 31.2007C33.3499 31.2007 33.351 29.8707 34.2245 29.8707C35.099 29.8707 35.0979 31.2007 34.2245 31.2007ZM37.8449 31.2007C36.9703 31.2007 36.9715 29.8707 37.8449 29.8707C38.7195 29.8707 38.7183 31.2007 37.8449 31.2007ZM41.4653 31.2007C40.5908 31.2007 40.5919 29.8707 41.4653 29.8707C42.3399 29.8707 42.3388 31.2007 41.4653 31.2007ZM45.0858 31.2007C44.2112 31.2007 44.2123 29.8707 45.0858 29.8707C45.9603 29.8707 45.9592 31.2007 45.0858 31.2007ZM30.208 28.0419V33.0296H49.1022V28.0419H30.208ZM34.2245 31.2007C33.3499 31.2007 33.351 29.8707 34.2245 29.8707C35.099 29.8707 35.0979 31.2007 34.2245 31.2007ZM37.8449 31.2007C36.9703 31.2007 36.9715 29.8707 37.8449 29.8707C38.7195 29.8707 38.7183 31.2007 37.8449 31.2007ZM41.4653 31.2007C40.5908 31.2007 40.5919 29.8707 41.4653 29.8707C42.3399 29.8707 42.3388 31.2007 41.4653 31.2007ZM45.0858 31.2007C44.2112 31.2007 44.2123 29.8707 45.0858 29.8707C45.9603 29.8707 45.9592 31.2007 45.0858 31.2007ZM30.208 28.0419V33.0296H49.1022V28.0419H30.208ZM34.2245 31.2007C33.3499 31.2007 33.351 29.8707 34.2245 29.8707C35.099 29.8707 35.0979 31.2007 34.2245 31.2007ZM37.8449 31.2007C36.9703 31.2007 36.9715 29.8707 37.8449 29.8707C38.7195 29.8707 38.7183 31.2007 37.8449 31.2007ZM41.4653 31.2007C40.5908 31.2007 40.5919 29.8707 41.4653 29.8707C42.3399 29.8707 42.3388 31.2007 41.4653 31.2007ZM45.0858 31.2007C44.2112 31.2007 44.2123 29.8707 45.0858 29.8707C45.9603 29.8707 45.9592 31.2007 45.0858 31.2007ZM30.208 28.0419V33.0296H49.1022V28.0419H30.208ZM34.2245 31.2007C33.3499 31.2007 33.351 29.8707 34.2245 29.8707C35.099 29.8707 35.0979 31.2007 34.2245 31.2007ZM37.8449 31.2007C36.9703 31.2007 36.9715 29.8707 37.8449 29.8707C38.7195 29.8707 38.7183 31.2007 37.8449 31.2007ZM41.4653 31.2007C40.5908 31.2007 40.5919 29.8707 41.4653 29.8707C42.3399 29.8707 42.3388 31.2007 41.4653 31.2007ZM45.0858 31.2007C44.2112 31.2007 44.2123 29.8707 45.0858 29.8707C45.9603 29.8707 45.9592 31.2007 45.0858 31.2007ZM30.208 28.0419V33.0296H49.1022V28.0419H30.208ZM34.2245 31.2007C33.3499 31.2007 33.351 29.8707 34.2245 29.8707C35.099 29.8707 35.0979 31.2007 34.2245 31.2007ZM37.8449 31.2007C36.9703 31.2007 36.9715 29.8707 37.8449 29.8707C38.7195 29.8707 38.7183 31.2007 37.8449 31.2007ZM41.4653 31.2007C40.5908 31.2007 40.5919 29.8707 41.4653 29.8707C42.3399 29.8707 42.3388 31.2007 41.4653 31.2007ZM45.0858 31.2007C44.2112 31.2007 44.2123 29.8707 45.0858 29.8707C45.9603 29.8707 45.9592 31.2007 45.0858 31.2007ZM30.208 28.0419V33.0296H49.1022V28.0419H30.208ZM34.2245 31.2007C33.3499 31.2007 33.351 29.8707 34.2245 29.8707C35.099 29.8707 35.0979 31.2007 34.2245 31.2007ZM37.8449 31.2007C36.9703 31.2007 36.9715 29.8707 37.8449 29.8707C38.7195 29.8707 38.7183 31.2007 37.8449 31.2007ZM41.4653 31.2007C40.5908 31.2007 40.5919 29.8707 41.4653 29.8707C42.3399 29.8707 42.3388 31.2007 41.4653 31.2007ZM45.0858 31.2007C44.2112 31.2007 44.2123 29.8707 45.0858 29.8707C45.9603 29.8707 45.9592 31.2007 45.0858 31.2007ZM30.208 28.0419V33.0296H49.1022V28.0419H30.208ZM34.2245 31.2007C33.3499 31.2007 33.351 29.8707 34.2245 29.8707C35.099 29.8707 35.0979 31.2007 34.2245 31.2007ZM37.8449 31.2007C36.9703 31.2007 36.9715 29.8707 37.8449 29.8707C38.7195 29.8707 38.7183 31.2007 37.8449 31.2007ZM41.4653 31.2007C40.5908 31.2007 40.5919 29.8707 41.4653 29.8707C42.3399 29.8707 42.3388 31.2007 41.4653 31.2007ZM45.0858 31.2007C44.2112 31.2007 44.2123 29.8707 45.0858 29.8707C45.9603 29.8707 45.9592 31.2007 45.0858 31.2007ZM30.208 28.0419V33.0296H49.1022V28.0419H30.208ZM34.2245 31.2007C33.3499 31.2007 33.351 29.8707 34.2245 29.8707C35.099 29.8707 35.0979 31.2007 34.2245 31.2007ZM37.8449 31.2007C36.9703 31.2007 36.9715 29.8707 37.8449 29.8707C38.7195 29.8707 38.7183 31.2007 37.8449 31.2007ZM41.4653 31.2007C40.5908 31.2007 40.5919 29.8707 41.4653 29.8707C42.3399 29.8707 42.3388 31.2007 41.4653 31.2007ZM45.0858 31.2007C44.2112 31.2007 44.2123 29.8707 45.0858 29.8707C45.9603 29.8707 45.9592 31.2007 45.0858 31.2007ZM42.8411 23.6139V12.8571H9.11219C8.89044 12.8571 8.71168 13.0334 8.71168 13.2495V37.6249C8.71168 37.841 8.89044 38.0172 9.11219 38.0172H52.8878C53.1084 38.0172 53.2883 37.841 53.2883 37.6249V23.6139H42.8411ZM29.6423 19.8399H34.8467C35.159 19.8399 35.4124 20.0882 35.4124 20.3941C35.4124 20.7 35.159 20.9483 34.8467 20.9483H29.6423C29.3301 20.9483 29.0766 20.7 29.0766 20.3941C29.0766 20.0882 29.3301 19.8399 29.6423 19.8399ZM29.6423 21.7241H38.354C38.6663 21.7241 38.9197 21.9724 38.9197 22.2783C38.9197 22.5842 38.6663 22.8325 38.354 22.8325H29.6423C29.3301 22.8325 29.0766 22.5842 29.0766 22.2783C29.0766 21.9724 29.3301 21.7241 29.6423 21.7241ZM29.6423 23.6084H38.354C38.6663 23.6084 38.9197 23.8566 38.9197 24.1626C38.9197 24.4685 38.6663 24.7167 38.354 24.7167H29.6423C29.3301 24.7167 29.0766 24.4685 29.0766 24.1626C29.0766 23.8566 29.3301 23.6084 29.6423 23.6084ZM18.5547 35.0246C13.8131 35.0246 9.9562 31.2462 9.9562 26.601C9.9562 21.9558 13.8131 18.1773 18.5547 18.1773C23.2964 18.1773 27.1533 21.9558 27.1533 26.601C27.1533 31.2462 23.2964 35.0246 18.5547 35.0246ZM50.2336 34.1379H29.0766V26.9335H50.2336V34.1379ZM30.208 28.0419V33.0296H49.1022V28.0419H30.208ZM34.2245 31.2007C33.3499 31.2007 33.351 29.8707 34.2245 29.8707C35.099 29.8707 35.0979 31.2007 34.2245 31.2007ZM37.8449 31.2007C36.9703 31.2007 36.9715 29.8707 37.8449 29.8707C38.7195 29.8707 38.7183 31.2007 37.8449 31.2007ZM41.4653 31.2007C40.5908 31.2007 40.5919 29.8707 41.4653 29.8707C42.3399 29.8707 42.3388 31.2007 41.4653 31.2007ZM45.0858 31.2007C44.2112 31.2007 44.2123 29.8707 45.0858 29.8707C45.9603 29.8707 45.9592 31.2007 45.0858 31.2007ZM30.208 28.0419V33.0296H49.1022V28.0419H30.208ZM34.2245 31.2007C33.3499 31.2007 33.351 29.8707 34.2245 29.8707C35.099 29.8707 35.0979 31.2007 34.2245 31.2007ZM37.8449 31.2007C36.9703 31.2007 36.9715 29.8707 37.8449 29.8707C38.7195 29.8707 38.7183 31.2007 37.8449 31.2007ZM41.4653 31.2007C40.5908 31.2007 40.5919 29.8707 41.4653 29.8707C42.3399 29.8707 42.3388 31.2007 41.4653 31.2007ZM45.0858 31.2007C44.2112 31.2007 44.2123 29.8707 45.0858 29.8707C45.9603 29.8707 45.9592 31.2007 45.0858 31.2007ZM30.208 28.0419V33.0296H49.1022V28.0419H30.208ZM34.2245 31.2007C33.3499 31.2007 33.351 29.8707 34.2245 29.8707C35.099 29.8707 35.0979 31.2007 34.2245 31.2007ZM37.8449 31.2007C36.9703 31.2007 36.9715 29.8707 37.8449 29.8707C38.7195 29.8707 38.7183 31.2007 37.8449 31.2007ZM41.4653 31.2007C40.5908 31.2007 40.5919 29.8707 41.4653 29.8707C42.3399 29.8707 42.3388 31.2007 41.4653 31.2007ZM45.0858 31.2007C44.2112 31.2007 44.2123 29.8707 45.0858 29.8707C45.9603 29.8707 45.9592 31.2007 45.0858 31.2007ZM30.208 28.0419V33.0296H49.1022V28.0419H30.208ZM34.2245 31.2007C33.3499 31.2007 33.351 29.8707 34.2245 29.8707C35.099 29.8707 35.0979 31.2007 34.2245 31.2007ZM37.8449 31.2007C36.9703 31.2007 36.9715 29.8707 37.8449 29.8707C38.7195 29.8707 38.7183 31.2007 37.8449 31.2007ZM41.4653 31.2007C40.5908 31.2007 40.5919 29.8707 41.4653 29.8707C42.3399 29.8707 42.3388 31.2007 41.4653 31.2007ZM45.0858 31.2007C44.2112 31.2007 44.2123 29.8707 45.0858 29.8707C45.9603 29.8707 45.9592 31.2007 45.0858 31.2007ZM30.208 28.0419V33.0296H49.1022V28.0419H30.208ZM34.2245 31.2007C33.3499 31.2007 33.351 29.8707 34.2245 29.8707C35.099 29.8707 35.0979 31.2007 34.2245 31.2007ZM37.8449 31.2007C36.9703 31.2007 36.9715 29.8707 37.8449 29.8707C38.7195 29.8707 38.7183 31.2007 37.8449 31.2007ZM41.4653 31.2007C40.5908 31.2007 40.5919 29.8707 41.4653 29.8707C42.3399 29.8707 42.3388 31.2007 41.4653 31.2007ZM45.0858 31.2007C44.2112 31.2007 44.2123 29.8707 45.0858 29.8707C45.9603 29.8707 45.9592 31.2007 45.0858 31.2007ZM30.208 28.0419V33.0296H49.1022V28.0419H30.208ZM34.2245 31.2007C33.3499 31.2007 33.351 29.8707 34.2245 29.8707C35.099 29.8707 35.0979 31.2007 34.2245 31.2007ZM37.8449 31.2007C36.9703 31.2007 36.9715 29.8707 37.8449 29.8707C38.7195 29.8707 38.7183 31.2007 37.8449 31.2007ZM41.4653 31.2007C40.5908 31.2007 40.5919 29.8707 41.4653 29.8707C42.3399 29.8707 42.3388 31.2007 41.4653 31.2007ZM45.0858 31.2007C44.2112 31.2007 44.2123 29.8707 45.0858 29.8707C45.9603 29.8707 45.9592 31.2007 45.0858 31.2007ZM30.208 28.0419V33.0296H49.1022V28.0419H30.208ZM34.2245 31.2007C33.3499 31.2007 33.351 29.8707 34.2245 29.8707C35.099 29.8707 35.0979 31.2007 34.2245 31.2007ZM37.8449 31.2007C36.9703 31.2007 36.9715 29.8707 37.8449 29.8707C38.7195 29.8707 38.7183 31.2007 37.8449 31.2007ZM41.4653 31.2007C40.5908 31.2007 40.5919 29.8707 41.4653 29.8707C42.3399 29.8707 42.3388 31.2007 41.4653 31.2007ZM45.0858 31.2007C44.2112 31.2007 44.2123 29.8707 45.0858 29.8707C45.9603 29.8707 45.9592 31.2007 45.0858 31.2007ZM30.208 28.0419V33.0296H49.1022V28.0419H30.208ZM34.2245 31.2007C33.3499 31.2007 33.351 29.8707 34.2245 29.8707C35.099 29.8707 35.0979 31.2007 34.2245 31.2007ZM37.8449 31.2007C36.9703 31.2007 36.9715 29.8707 37.8449 29.8707C38.7195 29.8707 38.7183 31.2007 37.8449 31.2007ZM41.4653 31.2007C40.5908 31.2007 40.5919 29.8707 41.4653 29.8707C42.3399 29.8707 42.3388 31.2007 41.4653 31.2007ZM45.0858 31.2007C44.2112 31.2007 44.2123 29.8707 45.0858 29.8707C45.9603 29.8707 45.9592 31.2007 45.0858 31.2007ZM30.208 28.0419V33.0296H49.1022V28.0419H30.208ZM34.2245 31.2007C33.3499 31.2007 33.351 29.8707 34.2245 29.8707C35.099 29.8707 35.0979 31.2007 34.2245 31.2007ZM37.8449 31.2007C36.9703 31.2007 36.9715 29.8707 37.8449 29.8707C38.7195 29.8707 38.7183 31.2007 37.8449 31.2007ZM41.4653 31.2007C40.5908 31.2007 40.5919 29.8707 41.4653 29.8707C42.3399 29.8707 42.3388 31.2007 41.4653 31.2007ZM45.0858 31.2007C44.2112 31.2007 44.2123 29.8707 45.0858 29.8707C45.9603 29.8707 45.9592 31.2007 45.0858 31.2007ZM30.208 28.0419V33.0296H49.1022V28.0419H30.208ZM34.2245 31.2007C33.3499 31.2007 33.351 29.8707 34.2245 29.8707C35.099 29.8707 35.0979 31.2007 34.2245 31.2007ZM37.8449 31.2007C36.9703 31.2007 36.9715 29.8707 37.8449 29.8707C38.7195 29.8707 38.7183 31.2007 37.8449 31.2007ZM41.4653 31.2007C40.5908 31.2007 40.5919 29.8707 41.4653 29.8707C42.3399 29.8707 42.3388 31.2007 41.4653 31.2007ZM45.0858 31.2007C44.2112 31.2007 44.2123 29.8707 45.0858 29.8707C45.9603 29.8707 45.9592 31.2007 45.0858 31.2007ZM26.0219 26.601C26.0219 28.3023 25.4268 29.8696 24.43 31.1132C24.3373 30.8871 24.2286 30.6698 24.1076 30.467L22.3189 27.4943C22.0394 27.0299 21.6627 26.6897 21.2497 26.5134C21.6887 25.9537 21.9489 25.2532 21.9489 24.4951C21.9489 22.6618 20.4261 21.17 18.5547 21.17C16.6834 21.17 15.1606 22.6618 15.1606 24.4951C15.1606 25.2532 15.4208 25.9537 15.8598 26.5134C15.4468 26.6897 15.0701 27.0299 14.7906 27.4943L13.0019 30.467C12.8808 30.6698 12.7722 30.8871 12.6795 31.1132C11.6827 29.8696 11.0876 28.3023 11.0876 26.601C11.0876 22.5676 14.4376 19.2857 18.5547 19.2857C22.6719 19.2857 26.0219 22.5676 26.0219 26.601ZM23.5521 32.032C22.2284 33.2036 20.4747 33.9163 18.5547 33.9163C16.6348 33.9163 14.8811 33.2036 13.5574 32.032C13.6536 31.6707 13.7973 31.3293 13.9772 31.03L15.7659 28.0574C15.9741 27.7116 16.2626 27.4877 16.5013 27.4877H17.076C17.36 27.6229 17.6666 27.7204 17.989 27.7725V31.0345C17.989 31.3404 18.2425 31.5887 18.5547 31.5887C18.867 31.5887 19.1204 31.3404 19.1204 31.0345V27.7725C19.4429 27.7204 19.7495 27.6229 20.0335 27.4877H20.6082C20.8469 27.4877 21.1354 27.7116 21.3436 28.0574L23.1323 31.03C23.3122 31.3293 23.4559 31.6707 23.5521 32.032ZM20.8175 24.4951C20.8175 25.7176 19.8027 26.7118 18.5547 26.7118C17.3068 26.7118 16.292 25.7176 16.292 24.4951C16.292 23.2725 17.3068 22.2783 18.5547 22.2783C19.8027 22.2783 20.8175 23.2725 20.8175 24.4951Z" fill="#001132"/>
</svg>
