<svg width="129" height="22" viewBox="0 0 129 22" fill="none" xmlns="http://www.w3.org/2000/svg">
<path d="M14.0231 11C14.0231 7.51075 15.6925 4.37634 18.3028 2.36559C16.3906 0.887097 13.932 0 11.2913 0C5.06895 0 0 4.93817 0 11C0 17.0618 5.06895 22 11.2913 22C13.932 22 16.3603 21.1129 18.3028 19.6344C15.6925 17.6237 14.0231 14.4892 14.0231 11Z" fill="#E30D17"/>
<path d="M18.3026 19.6343C20.6662 19.6343 22.5823 15.7685 22.5823 10.9998C22.5823 6.23104 20.6662 2.36523 18.3026 2.36523C15.9389 2.36523 14.0228 6.23104 14.0228 10.9998C14.0228 15.7685 15.9389 19.6343 18.3026 19.6343Z" fill="#EB610A"/>
<path d="M55.1514 8.04299C54.8782 7.77687 54.5747 7.59945 54.2104 7.45161C53.8462 7.30377 53.4516 7.24463 53.0267 7.24463C52.8142 7.24463 52.5714 7.2742 52.3285 7.30377C52.0857 7.33334 51.8429 7.42204 51.6001 7.51075C51.3572 7.59945 51.1448 7.7473 50.9323 7.92471C50.7198 8.10212 50.5377 8.3091 50.386 8.57522C50.1431 8.16126 49.7789 7.86557 49.354 7.62902C48.929 7.39247 48.4434 7.2742 47.8667 7.2742C47.6845 7.2742 47.5024 7.30377 47.2899 7.33334C47.0775 7.3629 46.8954 7.42204 46.6829 7.51075C46.5008 7.59945 46.2883 7.68816 46.1062 7.836C45.9241 7.98385 45.7723 8.16126 45.6205 8.36824V7.48118H44.0422V14.7847H45.6205V10.6746C45.6205 10.3789 45.6812 10.0832 45.7723 9.84668C45.8634 9.61013 46.0151 9.40315 46.1669 9.25531C46.349 9.10746 46.5311 8.95962 46.7739 8.90048C46.9864 8.81177 47.2292 8.78221 47.5024 8.78221C48.0488 8.78221 48.4434 8.95962 48.7469 9.28487C49.0504 9.61013 49.2022 10.0832 49.2022 10.7042V14.7551H50.7805V10.6746C50.7805 10.3789 50.8412 10.0832 50.9323 9.84668C51.0234 9.61013 51.1751 9.40315 51.3269 9.25531C51.509 9.10746 51.6911 8.95962 51.934 8.90048C52.1464 8.81177 52.3892 8.78221 52.6624 8.78221C53.2088 8.78221 53.6034 8.95962 53.9069 9.28487C54.2104 9.61013 54.3622 10.0832 54.3622 10.7042V14.7551H55.9406V10.1424C55.9406 9.72841 55.8798 9.31444 55.7281 8.95962C55.6067 8.60479 55.4245 8.30911 55.1514 8.04299Z" fill="black"/>
<path d="M63.5285 8.30912C63.2554 7.98386 62.9518 7.71774 62.5573 7.54032C62.1627 7.33334 61.7074 7.24463 61.161 7.24463C60.645 7.24463 60.1594 7.33334 59.7041 7.54032C59.2488 7.71774 58.8542 7.98386 58.5203 8.33869C58.1864 8.66395 57.9133 9.07792 57.7311 9.55103C57.549 10.0241 57.4276 10.5268 57.4276 11.0886C57.4276 11.6504 57.5187 12.1531 57.7311 12.6262C57.9133 13.0993 58.1864 13.5133 58.5203 13.8386C58.8542 14.1638 59.2488 14.4299 59.7041 14.6369C60.1594 14.8143 60.645 14.9326 61.161 14.9326C61.7074 14.9326 62.1627 14.8439 62.5573 14.6369C62.9518 14.4299 63.2554 14.1934 63.5285 13.8681V14.7552H65.1676V7.42204H63.5285V8.30912ZM63.4678 12.0053C63.3464 12.301 63.1947 12.5375 63.0125 12.7445C62.8001 12.9515 62.5876 13.1289 62.3144 13.2472C62.0413 13.3654 61.7377 13.4246 61.4038 13.4246C61.0396 13.4246 60.7361 13.3654 60.4629 13.2472C60.1897 13.1289 59.9469 12.9515 59.7648 12.7445C59.5827 12.5375 59.4309 12.301 59.3095 12.0053C59.2184 11.7096 59.1577 11.4139 59.1577 11.0886C59.1577 10.7634 59.2184 10.4677 59.3095 10.172C59.4006 9.87629 59.5523 9.63973 59.7648 9.43275C59.9469 9.22576 60.1897 9.04835 60.4629 8.93007C60.7361 8.8118 61.07 8.75266 61.4038 8.75266C61.7377 8.75266 62.0413 8.8118 62.3144 8.93007C62.5876 9.04835 62.8304 9.22576 63.0125 9.43275C63.225 9.63973 63.3768 9.87629 63.4678 10.172C63.5893 10.4677 63.6196 10.7634 63.6196 11.0886C63.6196 11.4139 63.5589 11.7096 63.4678 12.0053Z" fill="black"/>
<path d="M72.665 11.0591C72.2097 10.7043 71.5723 10.4677 70.7528 10.3494L69.994 10.2311C69.8119 10.2015 69.6601 10.172 69.5083 10.1424C69.3566 10.1128 69.2351 10.0537 69.1137 9.99455C68.9923 9.9354 68.9316 9.87626 68.8406 9.78755C68.7798 9.69883 68.7495 9.58055 68.7495 9.46226C68.7495 9.19612 68.8709 8.98912 69.1137 8.84126C69.3566 8.69341 69.7208 8.60469 70.1457 8.60469C70.3886 8.60469 70.601 8.63427 70.8438 8.66384C71.0563 8.69341 71.2991 8.75255 71.4813 8.81169C71.6937 8.87084 71.8759 8.92998 72.0276 9.01869C72.1794 9.07784 72.3311 9.16655 72.4526 9.22569L73.1507 7.9837C72.7561 7.74713 72.3008 7.54013 71.7848 7.42184C71.2688 7.27399 70.7224 7.21484 70.1154 7.21484C69.6297 7.21484 69.2048 7.27399 68.8406 7.39227C68.446 7.51056 68.1424 7.65841 67.8693 7.86541C67.5961 8.07241 67.3836 8.30898 67.2622 8.60469C67.1104 8.90041 67.0497 9.22569 67.0497 9.58055C67.0497 10.172 67.2622 10.6451 67.6871 11C68.1121 11.3548 68.7495 11.5914 69.569 11.7097L70.3582 11.7984C70.8135 11.8575 71.1474 11.9463 71.3295 12.0941C71.542 12.242 71.633 12.3898 71.633 12.5968C71.633 12.863 71.4813 13.0995 71.2081 13.2474C70.9349 13.3952 70.51 13.484 69.9333 13.484C69.6297 13.484 69.3566 13.4544 69.1137 13.4248C68.8709 13.3952 68.6584 13.3361 68.446 13.2474C68.2335 13.1882 68.0514 13.0995 67.8996 13.0108C67.7478 12.9221 67.5961 12.8334 67.4443 12.7151L66.6855 13.898C66.9587 14.105 67.2318 14.2528 67.5354 14.3711C67.8389 14.4894 68.1121 14.5781 68.4156 14.6668C68.6888 14.726 68.962 14.7851 69.2351 14.8147C69.478 14.8442 69.7208 14.8442 69.9029 14.8442C70.4493 14.8442 70.9046 14.7851 71.3295 14.6668C71.7544 14.5485 72.1187 14.4007 72.3919 14.1641C72.6954 13.9571 72.9079 13.691 73.0596 13.4248C73.2114 13.1291 73.3024 12.8038 73.3024 12.449C73.3632 11.8871 73.1203 11.414 72.665 11.0591Z" fill="black"/>
<path d="M87.9629 8.30914C87.6594 7.98388 87.2952 7.71775 86.8399 7.51076C86.4149 7.33334 85.9293 7.24463 85.4133 7.24463C84.8669 7.24463 84.3509 7.33334 83.8956 7.51076C83.4403 7.68818 83.0457 7.95431 82.7118 8.30914C82.378 8.63441 82.1351 9.04839 81.953 9.52151C81.7709 9.99463 81.6798 10.5269 81.6798 11.0887C81.6798 11.6801 81.7709 12.1828 81.953 12.6559C82.1351 13.129 82.4083 13.543 82.7422 13.8683C83.0761 14.1936 83.4707 14.4597 83.9563 14.6371C84.4116 14.8145 84.9276 14.9032 85.5043 14.9032C86.081 14.9032 86.6274 14.8145 87.113 14.6667C87.629 14.5188 88.1147 14.2527 88.57 13.8683L87.7504 12.7446C87.4469 12.9812 87.0827 13.1882 86.7184 13.3065C86.3542 13.4543 85.9596 13.5134 85.5954 13.5134C85.3222 13.5134 85.0794 13.4839 84.8366 13.3952C84.5937 13.336 84.3813 13.2177 84.1688 13.0699C83.9563 12.922 83.8046 12.7151 83.6528 12.5081C83.501 12.2715 83.41 12.0054 83.3493 11.6505H88.8735C88.8735 11.5618 88.9039 11.4731 88.9039 11.3548C88.9039 11.2661 88.9039 11.1479 88.9039 11.0591C88.9039 10.4973 88.8128 9.96506 88.6307 9.49194C88.5093 9.04839 88.2664 8.63441 87.9629 8.30914ZM83.3796 10.4382C83.41 10.172 83.501 9.93549 83.5921 9.69893C83.6831 9.49194 83.8349 9.28495 83.9867 9.1371C84.1384 8.98925 84.3509 8.8414 84.5634 8.78226C84.7759 8.69355 85.049 8.66398 85.3526 8.66398C85.8686 8.66398 86.2935 8.81183 86.6274 9.1371C86.9613 9.46237 87.1737 9.90592 87.2648 10.4677H83.3796V10.4382Z" fill="black"/>
<path d="M109.635 8.30912C109.362 7.98386 109.058 7.71774 108.663 7.54032C108.269 7.33334 107.814 7.24463 107.267 7.24463C106.751 7.24463 106.266 7.33334 105.81 7.54032C105.355 7.71774 104.96 7.98386 104.627 8.33869C104.293 8.66395 104.019 9.07792 103.837 9.55103C103.655 10.0241 103.534 10.5268 103.534 11.0886C103.534 11.6504 103.625 12.1531 103.837 12.6262C104.019 13.0993 104.293 13.5133 104.627 13.8386C104.96 14.1638 105.355 14.4299 105.81 14.6369C106.266 14.8143 106.751 14.9326 107.267 14.9326C107.814 14.9326 108.269 14.8439 108.663 14.6369C109.058 14.4299 109.362 14.1934 109.635 13.8681V14.7552H111.274V7.42204H109.635V8.30912ZM109.574 12.0053C109.453 12.301 109.301 12.5375 109.119 12.7445C108.906 12.9515 108.694 13.1289 108.421 13.2472C108.147 13.3654 107.844 13.4246 107.51 13.4246C107.146 13.4246 106.842 13.3654 106.569 13.2472C106.296 13.1289 106.053 12.9515 105.871 12.7445C105.689 12.5375 105.537 12.301 105.416 12.0053C105.325 11.7096 105.264 11.4139 105.264 11.0886C105.264 10.7634 105.325 10.4677 105.416 10.172C105.507 9.87629 105.659 9.63973 105.871 9.43275C106.053 9.22576 106.296 9.04835 106.569 8.93007C106.842 8.8118 107.176 8.75266 107.51 8.75266C107.844 8.75266 108.147 8.8118 108.421 8.93007C108.694 9.04835 108.937 9.22576 109.119 9.43275C109.331 9.63973 109.483 9.87629 109.574 10.172C109.695 10.4677 109.726 10.7634 109.726 11.0886C109.756 11.4139 109.695 11.7096 109.574 12.0053Z" fill="black"/>
<path d="M79.6766 13.2767C79.4034 13.3654 79.1606 13.4245 78.8874 13.4245C78.7356 13.4245 78.5535 13.395 78.4321 13.3358C78.2803 13.2767 78.1589 13.2175 78.0679 13.0993C77.9464 12.981 77.8857 12.8627 77.825 12.6853C77.7643 12.5079 77.734 12.3009 77.734 12.0643V8.87077H80.3443V7.42184H77.7036V5.2041H76.0646V7.42184H74.5773V8.87077H76.0646V12.0643C76.0646 13.0401 76.3074 13.7498 76.7627 14.1933C77.2483 14.6665 77.8857 14.8735 78.7356 14.8735C79.2213 14.8735 79.6462 14.8143 80.0104 14.6665C80.2533 14.5778 80.4961 14.4595 80.7086 14.3412L80.1622 13.0106C80.0104 13.1288 79.8283 13.188 79.6766 13.2767Z" fill="black"/>
<path d="M94.3978 7.24463C93.9425 7.24463 93.5175 7.33334 93.1533 7.48119C92.7891 7.62904 92.4855 8.04302 92.2124 8.39785V7.45162H90.7554V14.7554H92.2427V10.7043C92.2427 10.4086 92.2731 10.1129 92.3641 9.87635C92.4552 9.63979 92.5766 9.4328 92.7284 9.25538C92.8801 9.07796 93.0622 8.95968 93.3051 8.87097C93.5175 8.78226 93.7604 8.75269 94.0335 8.75269C94.246 8.75269 94.4585 8.78226 94.6709 8.81183C94.7924 8.8414 94.8834 8.87097 95.0048 8.90054L95.4905 7.39248C95.3691 7.36291 95.2173 7.30377 95.0959 7.30377C94.8834 7.24463 94.6709 7.24463 94.3978 7.24463Z" fill="black"/>
<path d="M117.102 7.24463C116.646 7.24463 116.221 7.33334 115.857 7.48119C115.493 7.62904 115.189 8.04302 114.916 8.39785V7.45162H113.429V14.7554H114.916V10.7043C114.916 10.4086 114.947 10.1129 115.038 9.87635C115.129 9.63979 115.25 9.4328 115.402 9.25538C115.554 9.07796 115.736 8.95968 115.979 8.87097C116.191 8.78226 116.434 8.75269 116.707 8.75269C116.92 8.75269 117.132 8.78226 117.344 8.81183C117.466 8.8414 117.557 8.87097 117.678 8.90054L118.164 7.39248C118.043 7.36291 117.891 7.30377 117.769 7.30377C117.587 7.24463 117.344 7.24463 117.102 7.24463Z" fill="black"/>
<path d="M124.72 4.46509V8.30917C124.447 7.9839 124.144 7.71778 123.749 7.54036C123.354 7.33337 122.899 7.24466 122.353 7.24466C121.837 7.24466 121.351 7.33337 120.896 7.54036C120.441 7.71778 120.046 7.9839 119.712 8.33874C119.378 8.66401 119.105 9.07799 118.923 9.55111C118.741 10.0242 118.619 10.5269 118.619 11.0887C118.619 11.6506 118.71 12.1533 118.923 12.6264C119.105 13.0995 119.378 13.5135 119.712 13.8387C120.046 14.164 120.441 14.4301 120.896 14.6371C121.351 14.8145 121.837 14.9328 122.353 14.9328C122.899 14.9328 123.354 14.8441 123.749 14.6371C124.144 14.4301 124.447 14.1936 124.72 13.8683V14.7554H126.359V4.46509H124.72ZM124.66 12.0054C124.538 12.3011 124.386 12.5377 124.204 12.7447C123.992 12.9516 123.779 13.1291 123.506 13.2473C123.233 13.3656 122.929 13.4248 122.596 13.4248C122.231 13.4248 121.928 13.3656 121.655 13.2473C121.381 13.1291 121.139 12.9516 120.957 12.7447C120.774 12.5377 120.623 12.3011 120.501 12.0054C120.41 11.7097 120.349 11.414 120.349 11.0887C120.349 10.7635 120.41 10.4678 120.501 10.1721C120.592 9.87638 120.744 9.63982 120.957 9.43283C121.139 9.22584 121.381 9.04842 121.655 8.93014C121.928 8.81186 122.262 8.75272 122.596 8.75272C122.929 8.75272 123.233 8.81186 123.506 8.93014C123.779 9.04842 124.022 9.22584 124.204 9.43283C124.417 9.63982 124.569 9.87638 124.66 10.1721C124.781 10.4678 124.811 10.7635 124.811 11.0887C124.842 11.414 124.781 11.7097 124.66 12.0054Z" fill="black"/>
<path d="M98.3132 9.37363C98.5257 9.16664 98.7685 9.01879 99.0417 8.90052C99.3148 8.78224 99.6487 8.7231 99.9826 8.7231C100.347 8.7231 100.681 8.78224 101.015 8.90052C101.318 9.01879 101.591 9.16664 101.804 9.37363L102.593 8.10214C102.289 7.86559 101.956 7.68817 101.591 7.54032C101.106 7.33334 100.559 7.24463 99.9826 7.24463C99.4059 7.24463 98.8596 7.33334 98.3739 7.54032C97.8883 7.74731 97.4633 8.01343 97.0991 8.3387C96.7348 8.69353 96.4617 9.07793 96.2492 9.55104C96.0367 10.0242 95.9457 10.5268 95.9457 11.0591C95.9457 11.6209 96.0367 12.1236 96.2492 12.5671C96.4617 13.0402 96.7348 13.4246 97.0991 13.7795C97.4633 14.1343 97.8883 14.4004 98.3739 14.5778C98.8596 14.7848 99.4059 14.8735 99.9826 14.8735C100.559 14.8735 101.106 14.7848 101.591 14.5778C101.956 14.43 102.289 14.2526 102.593 14.016L101.804 12.7445C101.591 12.9515 101.318 13.0994 101.015 13.2176C100.711 13.3359 100.347 13.3951 99.9826 13.3951C99.6487 13.3951 99.3452 13.3359 99.0417 13.2176C98.7685 13.0994 98.4953 12.9515 98.3132 12.7445C98.1007 12.5376 97.949 12.301 97.8276 12.0053C97.7061 11.7096 97.6454 11.4139 97.6454 11.0591C97.6454 10.7042 97.7061 10.4086 97.8276 10.1129C97.949 9.84674 98.1007 9.58061 98.3132 9.37363Z" fill="black"/>
<path d="M35.695 17.0322V16.6478H35.5432V16.5591H35.9681V16.6478H35.8164V17.0322H35.695ZM36.5145 17.0322V16.7069L36.3931 17.0026H36.2717L36.1503 16.7069V17.0322H36.0288V16.5591H36.1806L36.302 16.8548L36.4234 16.5591H36.5752V17.0322H36.5145Z" fill="#F69F00"/>
<path d="M128.393 14.0164C128.484 14.0164 128.545 14.0164 128.636 14.0459C128.696 14.0755 128.757 14.1051 128.818 14.1642C128.879 14.2233 128.909 14.2825 128.939 14.3416C128.97 14.4008 129 14.4895 129 14.5486C129 14.6373 128.97 14.6965 128.939 14.7556C128.909 14.8147 128.879 14.8739 128.818 14.933C128.757 14.9922 128.696 15.0217 128.636 15.0513C128.575 15.0809 128.484 15.0809 128.393 15.0809C128.302 15.0809 128.241 15.0809 128.15 15.0513C128.089 15.0217 128.029 14.9922 127.968 14.933C127.907 14.8739 127.877 14.8147 127.847 14.7556C127.816 14.6965 127.816 14.6078 127.816 14.5486C127.816 14.4599 127.816 14.4008 127.847 14.3416C127.877 14.2825 127.907 14.2233 127.968 14.1642C128.029 14.1051 128.089 14.0755 128.15 14.0459C128.241 14.0164 128.332 14.0164 128.393 14.0164ZM128.393 14.9922C128.454 14.9922 128.514 14.9922 128.545 14.9626C128.605 14.933 128.636 14.9035 128.666 14.8739C128.696 14.8443 128.727 14.7852 128.757 14.7556C128.788 14.6965 128.788 14.6669 128.788 14.6078C128.788 14.5486 128.788 14.4895 128.757 14.4599C128.727 14.4008 128.696 14.3712 128.666 14.3416C128.636 14.3121 128.575 14.2825 128.545 14.2529C128.484 14.2233 128.454 14.2233 128.393 14.2233C128.332 14.2233 128.272 14.2233 128.241 14.2529C128.18 14.2825 128.15 14.3121 128.12 14.3416C128.089 14.3712 128.059 14.4303 128.029 14.4599C127.998 14.519 127.998 14.5486 127.998 14.6078C127.998 14.6669 127.998 14.726 128.029 14.7556C128.059 14.8147 128.089 14.8443 128.12 14.8739C128.15 14.9035 128.211 14.933 128.241 14.9626C128.302 14.9626 128.332 14.9922 128.393 14.9922ZM128.423 14.3416C128.484 14.3416 128.545 14.3712 128.575 14.4008C128.605 14.4303 128.636 14.4599 128.636 14.519C128.636 14.5486 128.636 14.5782 128.605 14.6078C128.575 14.6373 128.545 14.6373 128.484 14.6669L128.636 14.8443H128.454L128.302 14.6669H128.272V14.8443H128.12V14.3416H128.423ZM128.332 14.4599V14.5486H128.454C128.484 14.5486 128.484 14.5486 128.514 14.5486L128.545 14.519C128.545 14.4895 128.545 14.4895 128.514 14.4895C128.514 14.4895 128.484 14.4895 128.454 14.4895H128.332V14.4599Z" fill="black"/>
<path d="M25.3146 0C22.6739 0 20.2456 0.887097 18.303 2.36559C20.9134 4.37634 22.5828 7.48118 22.5828 11C22.5828 14.5188 20.9134 17.6237 18.303 19.6344C20.2153 21.1129 22.6739 22 25.3146 22C31.5369 22 36.6059 17.0618 36.6059 11C36.6059 4.93817 31.5369 0 25.3146 0Z" fill="#F69F00"/>
</svg>
