<svg width="115" height="31" viewBox="0 0 115 31" fill="none" xmlns="http://www.w3.org/2000/svg">
<path d="M21.017 3.16569C19.6683 1.59698 17.2302 0.924438 14.1112 0.924438H5.059C4.75025 0.924271 4.45157 1.03656 4.21672 1.24109C3.98187 1.44562 3.82627 1.72896 3.77791 2.04013L0.0103761 26.4349C-0.00709339 26.5481 -0.000312867 26.6638 0.0302509 26.774C0.0608148 26.8843 0.114435 26.9864 0.187418 27.0735C0.2604 27.1605 0.35101 27.2304 0.453005 27.2783C0.554999 27.3262 0.665954 27.3509 0.778225 27.3508H6.36668L7.77024 18.2666L7.72673 18.5511C7.77416 18.2405 7.92873 17.9575 8.16257 17.7529C8.39642 17.5484 8.69417 17.4358 9.00218 17.4354H11.6578C16.8748 17.4354 20.9598 15.2731 22.1531 9.01794C22.1886 8.83295 22.2192 8.6529 22.2458 8.47695C22.6003 6.16499 22.2433 4.59135 21.0178 3.16652" fill="#003087"/>
<path d="M89.4321 14.7743C89.0904 17.0632 87.3775 17.0632 85.7209 17.0632H84.7782L85.4397 12.7896C85.48 12.5314 85.6976 12.3415 85.9538 12.3415H86.3865C87.5145 12.3415 88.5796 12.3415 89.1291 12.9967C89.457 13.3889 89.5562 13.971 89.4321 14.7743ZM88.7109 8.80203H82.4618C82.2548 8.80214 82.0547 8.87751 81.8973 9.01464C81.7399 9.15176 81.6355 9.34164 81.6029 9.55021L79.0778 25.9007C79.0662 25.9765 79.0708 26.054 79.0912 26.1278C79.1117 26.2016 79.1476 26.2701 79.1964 26.3284C79.2453 26.3868 79.3059 26.4336 79.3741 26.4658C79.4424 26.498 79.5167 26.5147 79.5918 26.5149H82.7986C83.0975 26.5149 83.3521 26.2929 83.3989 25.992L84.1159 21.3549C84.182 20.9249 84.5462 20.6068 84.9732 20.6068H86.9505C91.0677 20.6068 93.4429 18.5752 94.0633 14.5457C94.3429 12.7846 94.0746 11.4001 93.2665 10.4308C92.3778 9.36522 90.8026 8.80121 88.7118 8.80121" fill="#009CDE"/>
<path d="M44.8598 14.7742C44.5182 17.0631 42.8052 17.0631 41.1479 17.0631H40.2052L40.8667 12.7895C40.907 12.5313 41.1245 12.3414 41.3807 12.3414H41.8134C42.9414 12.3414 44.0066 12.3414 44.5561 12.9966C44.8848 13.3888 44.9839 13.9709 44.8598 14.7742ZM44.1387 8.80191H37.8896C37.4625 8.80191 37.0983 9.11927 37.0315 9.55009L34.5055 25.9007C34.4938 25.9765 34.4983 26.054 34.5187 26.1279C34.5391 26.2018 34.575 26.2703 34.6239 26.3287C34.6727 26.387 34.7334 26.4339 34.8017 26.466C34.87 26.4982 34.9444 26.5148 35.0196 26.5148H38.004C38.431 26.5148 38.7944 26.1975 38.8613 25.7667L39.5437 21.3557C39.6098 20.9249 39.9739 20.6075 40.401 20.6075H42.3782C46.4954 20.6075 48.8707 18.5751 49.4911 14.5456C49.7707 12.7845 49.5023 11.4 48.6942 10.4306C47.8055 9.3651 46.2303 8.80109 44.1395 8.80109L44.1387 8.80191ZM58.6472 20.6445C58.3572 22.3892 57.0012 23.5608 55.2697 23.5608C54.4019 23.5608 53.7066 23.2755 53.2602 22.7361C52.8171 22.2017 52.6511 21.4396 52.7913 20.5919C53.0604 18.862 54.4398 17.6534 56.1447 17.6534C56.9947 17.6534 57.6836 17.9412 58.1396 18.4855C58.5981 19.0339 58.7786 19.8001 58.6472 20.6445ZM62.8176 14.7002H59.8252C59.7008 14.7 59.5804 14.7453 59.4859 14.8278C59.3913 14.9102 59.3288 15.0245 59.3095 15.1499L59.179 16.0033L58.9695 15.6942C58.3217 14.7347 56.8771 14.4133 55.4348 14.4133C52.129 14.4133 49.305 16.9702 48.7555 20.5549C48.4694 22.3448 48.8755 24.0541 49.8698 25.2471C50.7826 26.343 52.0855 26.7993 53.6381 26.7993C56.3034 26.7993 57.7811 25.053 57.7811 25.053L57.6473 25.9015C57.6356 25.9774 57.6401 26.055 57.6605 26.1289C57.681 26.2029 57.717 26.2714 57.7659 26.3298C57.8149 26.3882 57.8756 26.435 57.9441 26.4671C58.0125 26.4992 58.0869 26.5158 58.1622 26.5157H60.8565C61.2835 26.5157 61.6477 26.1991 61.7146 25.7675L63.3325 15.3152C63.3441 15.2392 63.3395 15.1616 63.3189 15.0877C63.2984 15.0137 63.2623 14.9452 63.2133 14.8869C63.1643 14.8285 63.1035 14.7817 63.035 14.7496C62.9666 14.7175 62.8921 14.7009 62.8168 14.701" fill="#003087"/>
<path d="M103.22 20.6445C102.929 22.3892 101.573 23.5608 99.8419 23.5608C98.9742 23.5608 98.2789 23.2755 97.8325 22.7361C97.3893 22.2017 97.2234 21.4395 97.3636 20.5919C97.6327 18.862 99.0113 17.6534 100.717 17.6534C101.567 17.6534 102.256 17.9412 102.712 18.4855C103.17 19.0338 103.351 19.8001 103.22 20.6445ZM107.39 14.7001H104.397C104.273 14.7 104.153 14.7452 104.058 14.8277C103.964 14.9102 103.901 15.0245 103.882 15.1499L103.751 16.0033L103.542 15.6942C102.894 14.7347 101.449 14.4132 100.007 14.4132C96.7021 14.4132 93.878 16.9702 93.3277 20.5549C93.0417 22.3448 93.4486 24.0541 94.4428 25.247C95.3557 26.343 96.6586 26.7993 98.2112 26.7993C100.877 26.7993 102.355 25.053 102.355 25.053L102.221 25.9015C102.209 25.9773 102.213 26.0549 102.234 26.1288C102.254 26.2028 102.29 26.2713 102.339 26.3297C102.387 26.3882 102.448 26.4351 102.516 26.4672C102.585 26.4993 102.659 26.5158 102.734 26.5157H105.428C105.855 26.5157 106.219 26.1991 106.287 25.7675L107.905 15.3151C107.916 15.2392 107.912 15.1616 107.891 15.0876C107.871 15.0137 107.835 14.9452 107.786 14.8868C107.737 14.8285 107.676 14.7816 107.607 14.7495C107.539 14.7174 107.464 14.7009 107.389 14.701" fill="#009CDE"/>
<path d="M78.7555 14.7003H75.747C75.4593 14.7003 75.191 14.8459 75.0299 15.0892L70.8804 21.3246L69.1216 15.3326C69.0679 15.1498 68.958 14.9896 68.8081 14.8755C68.6582 14.7615 68.4762 14.6998 68.2893 14.6995H65.3331C65.2502 14.6996 65.1685 14.7198 65.0948 14.7585C65.0211 14.7972 64.9575 14.8533 64.9093 14.9221C64.8611 14.9909 64.8296 15.0705 64.8176 15.1541C64.8055 15.2378 64.8132 15.3232 64.84 15.4033L68.1515 25.3236L65.0366 29.8086C64.9816 29.8882 64.949 29.9817 64.9425 30.0789C64.9359 30.1761 64.9557 30.2733 64.9996 30.3598C65.0435 30.4463 65.1098 30.5189 65.1914 30.5696C65.2729 30.6203 65.3665 30.6471 65.462 30.6472H68.4673C68.7509 30.6472 69.0176 30.505 69.1804 30.2666L79.1825 15.5349C79.2368 15.4552 79.2687 15.3619 79.2748 15.2651C79.2808 15.1683 79.2607 15.0716 79.2167 14.9856C79.1727 14.8996 79.1064 14.8276 79.0251 14.7773C78.9438 14.727 78.8506 14.7004 78.7555 14.7003Z" fill="#003087"/>
<path d="M110.917 9.25191L108.351 25.9017C108.339 25.9776 108.344 26.0551 108.365 26.129C108.385 26.2029 108.421 26.2714 108.47 26.3297C108.519 26.3881 108.58 26.4349 108.648 26.4671C108.716 26.4992 108.791 26.5158 108.866 26.5159H111.445C111.872 26.5159 112.236 26.1985 112.303 25.7677L114.832 9.41635C114.844 9.34046 114.84 9.26286 114.819 9.18892C114.799 9.11498 114.763 9.04645 114.714 8.98806C114.665 8.92967 114.604 8.88282 114.536 8.85073C114.467 8.81864 114.393 8.80208 114.317 8.80219H111.431C111.307 8.80186 111.187 8.84697 111.092 8.92932C110.998 9.01167 110.936 9.12582 110.917 9.25109" fill="#009CDE"/>
<path d="M21.017 3.16569C19.6683 1.59698 17.2302 0.924438 14.1112 0.924438H5.059C4.75025 0.924271 4.45157 1.03656 4.21672 1.24109C3.98187 1.44562 3.82627 1.72896 3.77791 2.04013L0.0103761 26.4349C-0.00709339 26.5481 -0.000312867 26.6638 0.0302509 26.774C0.0608148 26.8843 0.114435 26.9864 0.187418 27.0735C0.2604 27.1605 0.35101 27.2304 0.453005 27.2783C0.554999 27.3262 0.665954 27.3509 0.778225 27.3508H6.36668L7.77024 18.2666L7.72673 18.5511C7.77416 18.2405 7.92873 17.9575 8.16257 17.7529C8.39642 17.5484 8.69417 17.4358 9.00218 17.4354H11.6578C16.8748 17.4354 20.9598 15.2731 22.1531 9.01794C22.1886 8.83295 22.2192 8.6529 22.2458 8.47695C22.6003 6.16499 22.2433 4.59135 21.0178 3.16652" fill="#003087"/>
<path d="M9.27776 8.50738C9.32011 8.23548 9.45603 7.98788 9.66114 7.80902C9.86624 7.63016 10.1271 7.53175 10.3969 7.53145H17.4937C18.334 7.53145 19.118 7.58736 19.8343 7.70411C20.2259 7.7684 20.6133 7.85681 20.9945 7.96885C21.4274 8.09303 21.8462 8.26334 22.2442 8.47696C22.6003 6.16416 22.2426 4.59134 21.0171 3.16567C19.6675 1.59778 17.2302 0.925232 14.1113 0.925232H5.05822C4.74974 0.925455 4.45145 1.03792 4.21693 1.24241C3.98242 1.44691 3.82705 1.73004 3.77874 2.04093L0.0095879 26.4334C-0.00799984 26.5465 -0.00133517 26.6622 0.0291231 26.7725C0.0595814 26.8828 0.113109 26.985 0.186017 27.0722C0.258925 27.1593 0.34948 27.2293 0.451442 27.2773C0.553404 27.3252 0.664349 27.3501 0.776631 27.3501H6.36589L7.76945 18.265L9.27776 8.50738Z" fill="#003087"/>
<path d="M22.245 8.47565C22.2173 8.65654 22.1864 8.8369 22.1523 9.01664C20.959 15.2709 16.8741 17.4341 11.657 17.4341H9.0006C8.69264 17.4343 8.39491 17.5469 8.16116 17.7515C7.92741 17.9561 7.77305 18.2392 7.72596 18.5497L6.36591 27.3487L5.97916 29.8448C5.96379 29.9439 5.96965 30.0452 5.99635 30.1418C6.02305 30.2383 6.06996 30.3278 6.13383 30.4041C6.19771 30.4804 6.27703 30.5416 6.36634 30.5836C6.45564 30.6256 6.55281 30.6473 6.65113 30.6472H11.3622C11.9197 30.6472 12.3935 30.2328 12.4813 29.6713L12.5272 29.4263L13.4151 23.6842L13.4715 23.3669C13.5137 23.0948 13.6497 22.847 13.855 22.6681C14.0603 22.4891 14.3215 22.3909 14.5915 22.3909H15.2965C19.86 22.3909 23.4334 20.4999 24.4776 15.0276C24.9127 12.7419 24.6871 10.832 23.5349 9.49103C23.1691 9.07529 22.7319 8.73119 22.245 8.47565Z" fill="#009CDE"/>
<path d="M20.9953 7.96832C20.8132 7.91323 20.6255 7.8639 20.4321 7.82032C20.2387 7.77675 20.0389 7.7381 19.8343 7.70522C19.1172 7.586 18.334 7.53009 17.4928 7.53009H10.3969C10.1268 7.52975 9.86551 7.62805 9.66025 7.80719C9.45499 7.98633 9.31932 8.23451 9.27776 8.50684L7.76946 18.2662L7.72595 18.5498C7.77305 18.2392 7.92741 17.9561 8.16116 17.7515C8.3949 17.5469 8.69263 17.4343 9.00059 17.4341H11.657C16.8741 17.4341 20.959 15.2718 22.1523 9.0166C22.1878 8.8316 22.2176 8.65237 22.245 8.4756C21.9298 8.30734 21.6016 8.16599 21.2636 8.053C21.1758 8.0234 21.0863 7.99545 20.9953 7.96749" fill="#012169"/>
</svg>
