<svg width="51" height="18" viewBox="0 0 51 18" fill="none" xmlns="http://www.w3.org/2000/svg">
<path d="M51 17.0385C49.7299 17.0385 48.4505 17.0385 47.1616 17.0385C47.0205 16.3264 46.87 15.6342 46.7477 14.932C46.7006 14.6452 46.6065 14.5266 46.3055 14.5365C44.7626 14.5562 43.2291 14.5562 41.6863 14.5365C41.4511 14.5365 41.357 14.6156 41.2911 14.843C41.0747 15.5056 40.849 16.1682 40.6138 16.8308C40.5855 16.9198 40.4726 17.0385 40.3974 17.0385C39.0144 17.0483 37.6221 17.0483 36.1921 17.0483C36.4555 16.3858 36.7001 15.7627 36.9447 15.1298C38.7322 10.6401 40.5197 6.16024 42.3166 1.67051C42.7023 0.701359 43.2856 0.295898 44.2828 0.295898C45.3929 0.295898 46.5125 0.295898 47.6508 0.295898C47.7637 0.839809 47.8766 1.38372 47.9801 1.91774C48.8644 6.34814 49.7394 10.7884 50.6237 15.2188C50.7366 15.7825 50.8683 16.3462 50.9906 16.9198C51 16.9593 51 16.9989 51 17.0385ZM45.9762 11.0851C45.5717 9.02813 45.1671 6.99094 44.7626 4.95375C44.7438 4.95375 44.725 4.94386 44.7156 4.94386C44.01 6.98105 43.3138 9.01824 42.5988 11.0851C43.7372 11.0851 44.8379 11.0851 45.9762 11.0851Z" fill="url(#paint0_linear)"/>
<path d="M34.2822 0C34.7903 0.0988941 35.2983 0.178009 35.7969 0.306572C36.2579 0.415355 36.7001 0.573586 37.1893 0.721927C36.9447 1.92843 36.7095 3.10527 36.4743 4.25245C35.8345 4.05466 35.223 3.8272 34.5927 3.67886C33.7272 3.48107 32.8428 3.40196 31.9867 3.65908C31.6386 3.75797 31.2811 3.95576 31.0083 4.203C30.5379 4.62824 30.5285 5.24139 30.9801 5.68641C31.2905 5.99298 31.6574 6.25011 32.0337 6.47756C32.871 7.01159 33.7554 7.4665 34.5739 8.04009C35.5335 8.71257 36.2391 9.62239 36.3802 10.8685C36.6436 13.0639 35.8722 14.7946 34.1129 16.0208C33.0122 16.7922 31.7609 17.1383 30.4626 17.257C28.6469 17.435 26.8688 17.2175 25.1283 16.6241C25.0154 16.5845 24.9025 16.5351 24.7897 16.4856C24.752 16.4758 24.7238 16.4461 24.6768 16.4065C24.9214 15.2 25.166 13.9935 25.42 12.7474C25.7116 12.8859 25.9939 13.0145 26.2761 13.143C27.6308 13.7166 29.0326 13.9836 30.4814 13.6968C30.8578 13.6177 31.2435 13.4496 31.5633 13.2221C32.2595 12.7376 32.3254 11.8178 31.6951 11.2344C31.2811 10.8586 30.7825 10.5817 30.3027 10.2751C29.5595 9.8004 28.7786 9.39494 28.073 8.8708C27.1793 8.18843 26.5301 7.28849 26.3984 6.08199C26.2102 4.28211 26.85 2.81848 28.1671 1.6812C29.3149 0.692258 30.6696 0.247235 32.1184 0.0692257C32.2031 0.0593363 32.2783 0.0296683 32.3536 0.00988945C32.9933 3.75777e-08 33.6331 0 34.2822 0Z" fill="url(#paint1_linear)"/>
<path d="M19.352 0.305362C19.1356 0.84927 18.9286 1.3734 18.7217 1.88764C16.746 6.84215 14.7704 11.7967 12.8041 16.7512C12.71 16.9885 12.5971 17.0479 12.3713 17.0479C11.1201 17.038 9.87826 17.0281 8.62702 17.0479C8.3636 17.0479 8.27892 16.9588 8.21307 16.7017C7.15939 12.3702 6.07748 8.04864 5.03321 3.71715C4.84505 2.92601 4.45933 2.3821 3.73492 2.04587C2.57776 1.51185 1.38296 1.13606 0.159934 0.829492C0.103487 0.819602 0.0564472 0.799824 0 0.789935C0.00940787 0.285583 0.009408 0.285583 0.460986 0.285583C2.64361 0.285583 4.82624 0.285583 7.00886 0.285583C8.04373 0.285583 8.78695 0.918495 8.98452 1.99642C9.53958 5.04231 10.0758 8.09809 10.6309 11.144C10.6591 11.2725 10.6779 11.411 10.7156 11.5989C10.772 11.4901 10.8096 11.4209 10.8379 11.3516C12.1926 7.75196 13.5473 4.14239 14.8927 0.542704C14.9679 0.344919 15.0526 0.275694 15.2596 0.285583C16.5296 0.295473 17.7903 0.295473 19.0603 0.295473C19.1544 0.295473 19.2391 0.305362 19.352 0.305362Z" fill="url(#paint2_linear)"/>
<path d="M17.7056 17.0471C18.844 11.4498 19.9729 5.89201 21.1113 0.314453C22.4942 0.314453 23.8584 0.314453 25.2413 0.314453C25.072 1.16493 24.9027 1.99563 24.7333 2.82633C23.7925 7.43473 22.8611 12.0332 21.9298 16.6417C21.8639 16.9581 21.7604 17.0669 21.4406 17.057C20.3116 17.0372 19.1733 17.0471 18.0443 17.0471C17.9408 17.0471 17.8373 17.0471 17.7056 17.0471Z" fill="url(#paint3_linear)"/>
<defs>
<linearGradient id="paint0_linear" x1="2.87006" y1="8.97546" x2="50.7323" y2="8.67591" gradientUnits="userSpaceOnUse">
<stop stop-color="#262860"/>
<stop offset="1" stop-color="#3D429B"/>
</linearGradient>
<linearGradient id="paint1_linear" x1="2.86895" y1="8.85013" x2="50.7314" y2="8.55058" gradientUnits="userSpaceOnUse">
<stop stop-color="#262860"/>
<stop offset="1" stop-color="#3D429B"/>
</linearGradient>
<linearGradient id="paint2_linear" x1="2.86813" y1="8.69726" x2="50.7305" y2="8.3977" gradientUnits="userSpaceOnUse">
<stop stop-color="#262860"/>
<stop offset="1" stop-color="#3D429B"/>
</linearGradient>
<linearGradient id="paint3_linear" x1="2.86884" y1="8.81045" x2="50.7313" y2="8.5109" gradientUnits="userSpaceOnUse">
<stop stop-color="#262860"/>
<stop offset="1" stop-color="#3D429B"/>
</linearGradient>
</defs>
</svg>
