<svg width="65" height="65" viewBox="0 0 65 65" fill="none" xmlns="http://www.w3.org/2000/svg">
<path d="M40.5833 41.6527C41.9757 41.6527 43.3111 42.2056 44.2956 43.1897C45.2802 44.1738 45.8333 45.5086 45.8333 46.9004V50.4036L45.8147 50.6555C45.0913 55.6164 40.6347 58 33.1563 58C25.706 58 21.177 55.6443 20.1993 50.7418L20.1667 50.3989V46.9004C20.1667 45.5086 20.7198 44.1738 21.7044 43.1897C22.6889 42.2056 24.0243 41.6527 25.4167 41.6527H40.5833ZM40.5833 45.1512H25.4167C24.9525 45.1512 24.5074 45.3355 24.1792 45.6635C23.851 45.9916 23.6667 46.4365 23.6667 46.9004V50.2123C24.32 53.0111 27.2833 54.5015 33.1563 54.5015C39.027 54.5015 41.8597 53.0298 42.3333 50.266V46.9004C42.3333 46.4365 42.149 45.9916 41.8208 45.6635C41.4926 45.3355 41.0475 45.1512 40.5833 45.1512ZM42.9027 27.6563L55.75 27.6587C57.1424 27.6587 58.4777 28.2116 59.4623 29.1957C60.4469 30.1798 61 31.5146 61 32.9064V36.4096L60.9813 36.6615C60.258 41.6223 55.8013 44.006 48.323 44.006L47.588 43.999C46.899 42.3388 45.6431 40.9767 44.0437 40.1553C45.2453 40.3885 46.6687 40.5075 48.323 40.5075C54.1937 40.5075 57.0263 39.0358 57.5 36.272V32.9064C57.5 32.4425 57.3156 31.9976 56.9874 31.6695C56.6592 31.3415 56.2141 31.1572 55.75 31.1572H43.5C43.5 29.9304 43.29 28.7502 42.9027 27.6563ZM10.25 27.6587L23.0973 27.6563C22.7678 28.5881 22.5722 29.5618 22.5163 30.5484L22.5 31.1572H10.25C9.78587 31.1572 9.34075 31.3415 9.01256 31.6695C8.68437 31.9976 8.5 32.4425 8.5 32.9064V36.2183C9.15333 39.0171 12.1167 40.5075 17.9897 40.5075C19.441 40.5075 20.7057 40.4165 21.7977 40.2393C20.2704 41.0688 19.0738 42.3967 18.4073 44.0013L17.9873 44.006C10.5393 44.006 6.01033 41.6503 5.03267 36.7478L5 36.4049V32.9064C5 31.5146 5.55312 30.1798 6.53769 29.1957C7.52226 28.2116 8.85761 27.6587 10.25 27.6587ZM33 22.994C35.1659 22.994 37.2432 23.854 38.7747 25.3849C40.3063 26.9158 41.1667 28.9922 41.1667 31.1572C41.1667 33.3222 40.3063 35.3985 38.7747 36.9294C37.2432 38.4603 35.1659 39.3203 33 39.3203C30.8341 39.3203 28.7568 38.4603 27.2253 36.9294C25.6937 35.3985 24.8333 33.3222 24.8333 31.1572C24.8333 28.9922 25.6937 26.9158 27.2253 25.3849C28.7568 23.854 30.8341 22.994 33 22.994ZM33 26.4925C31.7623 26.4925 30.5753 26.984 29.7002 27.8588C28.825 28.7335 28.3333 29.92 28.3333 31.1572C28.3333 32.3943 28.825 33.5808 29.7002 34.4556C30.5753 35.3304 31.7623 35.8218 33 35.8218C34.2377 35.8218 35.4247 35.3304 36.2998 34.4556C37.175 33.5808 37.6667 32.3943 37.6667 31.1572C37.6667 29.92 37.175 28.7335 36.2998 27.8588C35.4247 26.984 34.2377 26.4925 33 26.4925ZM48.1667 9C50.3326 9 52.4098 9.86005 53.9414 11.3909C55.4729 12.9218 56.3333 14.9982 56.3333 17.1632C56.3333 19.3282 55.4729 21.4045 53.9414 22.9354C52.4098 24.4663 50.3326 25.3263 48.1667 25.3263C46.0007 25.3263 43.9235 24.4663 42.392 22.9354C40.8604 21.4045 40 19.3282 40 17.1632C40 14.9982 40.8604 12.9218 42.392 11.3909C43.9235 9.86005 46.0007 9 48.1667 9ZM17.8333 9C19.9993 9 22.0765 9.86005 23.608 11.3909C25.1396 12.9218 26 14.9982 26 17.1632C26 19.3282 25.1396 21.4045 23.608 22.9354C22.0765 24.4663 19.9993 25.3263 17.8333 25.3263C15.6674 25.3263 13.5902 24.4663 12.0586 22.9354C10.5271 21.4045 9.66667 19.3282 9.66667 17.1632C9.66667 14.9982 10.5271 12.9218 12.0586 11.3909C13.5902 9.86005 15.6674 9 17.8333 9ZM48.1667 12.4985C46.929 12.4985 45.742 12.99 44.8668 13.8647C43.9917 14.7395 43.5 15.926 43.5 17.1632C43.5 18.4003 43.9917 19.5868 44.8668 20.4616C45.742 21.3364 46.929 21.8278 48.1667 21.8278C49.4043 21.8278 50.5913 21.3364 51.4665 20.4616C52.3417 19.5868 52.8333 18.4003 52.8333 17.1632C52.8333 15.926 52.3417 14.7395 51.4665 13.8647C50.5913 12.99 49.4043 12.4985 48.1667 12.4985ZM17.8333 12.4985C16.5957 12.4985 15.4087 12.99 14.5335 13.8647C13.6583 14.7395 13.1667 15.926 13.1667 17.1632C13.1667 18.4003 13.6583 19.5868 14.5335 20.4616C15.4087 21.3364 16.5957 21.8278 17.8333 21.8278C19.071 21.8278 20.258 21.3364 21.1332 20.4616C22.0083 19.5868 22.5 18.4003 22.5 17.1632C22.5 15.926 22.0083 14.7395 21.1332 13.8647C20.258 12.99 19.071 12.4985 17.8333 12.4985Z" fill="#3D3F54"/>
</svg>
