<svg width="17" height="17" viewBox="0 0 17 17" fill="none" xmlns="http://www.w3.org/2000/svg">
<path d="M12.7502 5.66683H12.0418V4.25016C12.0418 2.29516 10.4552 0.708496 8.50016 0.708496C6.54516 0.708496 4.9585 2.29516 4.9585 4.25016V5.66683H4.25016C3.471 5.66683 2.8335 6.30433 2.8335 7.0835V14.1668C2.8335 14.946 3.471 15.5835 4.25016 15.5835H12.7502C13.5293 15.5835 14.1668 14.946 14.1668 14.1668V7.0835C14.1668 6.30433 13.5293 5.66683 12.7502 5.66683ZM6.37516 4.25016C6.37516 3.07433 7.32433 2.12516 8.50016 2.12516C9.67599 2.12516 10.6252 3.07433 10.6252 4.25016V5.66683H6.37516V4.25016ZM12.7502 14.1668H4.25016V7.0835H12.7502V14.1668ZM8.50016 12.0418C9.27933 12.0418 9.91683 11.4043 9.91683 10.6252C9.91683 9.846 9.27933 9.2085 8.50016 9.2085C7.72099 9.2085 7.0835 9.846 7.0835 10.6252C7.0835 11.4043 7.72099 12.0418 8.50016 12.0418Z" fill="black"/>
</svg>
