<svg width="65" height="65" viewBox="0 0 65 65" fill="none" xmlns="http://www.w3.org/2000/svg">
<path d="M35.1007 35.8643C37.461 35.8643 39.7245 34.9233 41.3935 33.2482C43.0624 31.5731 44 29.3011 44 26.9322C44 24.5632 43.0624 22.2913 41.3935 20.6162C39.7245 18.9411 37.461 18 35.1007 18H22V20.7016H25.3598V33.1627H22V35.8643H25.3598V39.5706H22V42.2722H25.3598V47H28.0514V42.2722H36.1311V39.5706H28.0514V35.8643H35.1007ZM28.0514 20.7016H35.1007C36.7471 20.7016 38.326 21.358 39.4902 22.5265C40.6543 23.695 41.3084 25.2797 41.3084 26.9322C41.3084 28.5846 40.6543 30.1694 39.4902 31.3378C38.326 32.5063 36.7471 33.1627 35.1007 33.1627H28.0514V20.7016Z" fill="#3D3F54"/>
<circle cx="32.5" cy="32.5" r="24.5" stroke="#3D3F54" stroke-width="4"/>
</svg>
