<svg width="65" height="65" viewBox="0 0 65 65" fill="none" xmlns="http://www.w3.org/2000/svg">
<path d="M29.5 5C15.9907 5 5 15.9907 5 29.5V39.6503C5 42.1591 7.19765 44.2 9.9 44.2H12.35C12.9998 44.2 13.6229 43.9419 14.0824 43.4824C14.5419 43.0229 14.8 42.3998 14.8 41.75V29.1497C14.8 28.4999 14.5419 27.8767 14.0824 27.4172C13.6229 26.9578 12.9998 26.6997 12.35 26.6997H10.1254C11.4876 17.2182 19.6461 9.9 29.5 9.9C39.3539 9.9 47.5124 17.2182 48.8746 26.6997H46.65C46.0002 26.6997 45.3771 26.9578 44.9176 27.4172C44.4581 27.8767 44.2 28.4999 44.2 29.1497V44.2C44.2 46.9024 42.0023 49.1 39.3 49.1H34.4V46.65H24.6V54H39.3C44.7047 54 49.1 49.6047 49.1 44.2C51.8024 44.2 54 42.1591 54 39.6503V29.5C54 15.9907 43.0093 5 29.5 5Z" fill="#3D3F54"/>
</svg>
