<svg width="65" height="65" viewBox="0 0 65 65" fill="none" xmlns="http://www.w3.org/2000/svg">
<path d="M58 33.32C58 29.96 55.3391 28.2 51.7391 28.2H41.2522C42.0348 25.32 42.3478 22.6 42.3478 20.2C42.3478 10.92 39.8435 9 37.6522 9C36.2435 9 35.1478 9.16 33.7391 9.96C33.2696 10.28 33.113 10.6 32.9565 11.08L31.3913 19.72C29.6696 24.2 25.4435 28.2 22 30.92V53.8C23.2522 53.8 24.5043 54.44 26.0696 55.24C27.7913 56.04 29.513 57 31.3913 57H46.2609C49.3913 57 51.7391 54.44 51.7391 52.2C51.7391 51.72 51.7391 51.4 51.5826 51.08C53.4609 50.28 54.8696 48.68 54.8696 46.6C54.8696 45.64 54.713 44.84 54.4 44.04C55.6522 43.24 56.7478 41.8 56.7478 40.2C56.7478 39.24 56.2783 38.28 55.8087 37.48C57.0609 36.52 58 34.92 58 33.32ZM54.713 33.32C54.713 35.4 52.6783 35.56 52.3652 36.52C52.0522 37.64 53.6174 37.96 53.6174 39.88C53.6174 41.8 51.2696 41.8 50.9565 42.92C50.6435 44.2 51.7391 44.52 51.7391 46.44V46.76C51.4261 48.36 49.0783 48.52 48.6087 49.16C48.1391 49.96 48.6087 50.28 48.6087 52.04C48.6087 53 47.513 53.64 46.2609 53.64H31.3913C30.1391 53.64 28.887 53 27.3217 52.2C26.0696 51.56 24.8174 50.92 23.5652 50.6V33.8C27.4783 30.76 32.487 26.28 34.3652 20.68V20.36L35.7739 12.36C36.4 12.2 36.8696 12.2 37.6522 12.2C37.9652 12.2 39.2174 14.12 39.2174 20.2C39.2174 22.6 38.7478 25.16 37.9652 28.2H37.6522C36.713 28.2 36.087 28.84 36.087 29.8C36.087 30.76 36.713 31.4 37.6522 31.4H51.7391C53.3043 31.4 54.713 32.2 54.713 33.32Z" fill="#3D3F54"/>
<path d="M19.8 57H10.2C8.44 57 7 55.55 7 53.7778V31.2222C7 29.45 8.44 28 10.2 28H19.8C21.56 28 23 29.45 23 31.2222V53.7778C23 55.55 21.56 57 19.8 57ZM10.2 31.2222V53.7778H19.8V31.2222H10.2Z" fill="#3D3F54"/>
</svg>
